<svg width="20" height="20" viewBox="0 0 20 20" fill="none" xmlns="http://www.w3.org/2000/svg">
<mask id="path-1-inside-1" fill="white">
<path fill-rule="evenodd" clip-rule="evenodd" d="M15.9613 0.0143738C15.9389 0.0225421 15.9199 0.0293079 15.9192 0.0293904C15.9038 0.0311849 15.7892 0.136445 15.7532 0.181815C15.5923 0.384322 15.6708 0.525639 16.3135 1.1901C16.5687 1.45389 16.6688 1.56401 16.8197 1.74676C17.1003 2.08665 17.2881 2.33934 17.525 2.69561C17.6506 2.88464 17.869 3.24545 17.9213 3.35052C17.9368 3.38172 17.9578 3.41909 17.9679 3.43357C17.9919 3.46799 18.2957 4.08203 18.3421 4.19007C18.8023 5.26026 19.0549 6.20567 19.1773 7.31609C19.2143 7.65231 19.2262 7.91989 19.2261 8.41449C19.226 8.98162 19.2124 9.24556 19.161 9.67275C19.0963 10.2114 18.9662 10.8582 18.8259 11.3384C18.8094 11.3951 18.7836 11.4833 18.7687 11.5343C18.6756 11.8534 18.5019 12.3174 18.3017 12.7823C18.2569 12.8862 17.9746 13.451 17.9022 13.5816C17.7733 13.814 17.7469 13.859 17.5794 14.1334C17.3536 14.5033 16.9781 15.0181 16.6629 15.3899C16.4904 15.5933 16.4057 15.6851 16.1298 15.9676C15.8749 16.2284 15.8013 16.2987 15.5088 16.5606C15.153 16.879 14.657 17.2501 14.2105 17.5318C14.1628 17.5619 14.0985 17.6029 14.0676 17.623C14.0367 17.6431 13.9805 17.6772 13.9425 17.6987C13.9046 17.7203 13.8403 17.7572 13.7996 17.7807C13.6137 17.8882 13.517 17.9408 13.3173 18.0434C13.1027 18.1537 13.049 18.179 12.7252 18.3228C12.1332 18.5858 11.4352 18.8134 10.7294 18.9738C10.5277 19.0196 10.0747 19.0995 9.89734 19.1206C9.85804 19.1252 9.78454 19.1343 9.734 19.1407C8.93652 19.2423 8.01145 19.2425 7.21756 19.1413C7.17545 19.1359 7.10194 19.1269 7.05422 19.1211C7.00649 19.1154 6.85949 19.0919 6.72754 19.069C6.51081 19.0313 6.42177 19.0137 6.17627 18.9601C6.06186 18.9352 5.79698 18.8668 5.68115 18.8323C5.625 18.8156 5.53771 18.7895 5.48718 18.7744C5.14898 18.6735 4.65491 18.4896 4.30297 18.3336C4.1252 18.2549 3.57171 17.9789 3.47096 17.9187C3.44008 17.9003 3.38036 17.8654 3.33825 17.841C2.68827 17.4658 2.10475 17.0332 1.49586 16.475C1.43987 16.4237 1.25152 16.2398 1.0773 16.0664C0.542236 15.5337 0.460637 15.4772 0.302545 15.5304C0.201765 15.5643 0.121596 15.6302 0.0549943 15.7339C0.0361082 15.7633 0.0160073 15.7902 0.0103312 15.7938C0.00455308 15.7974 0 15.8429 0 15.897C0 15.9886 0.00189882 15.9971 0.03473 16.0537C0.136991 16.23 0.298829 16.4218 0.607388 16.7324C0.975003 17.1025 1.26502 17.3601 1.69465 17.6982C1.92246 17.8774 2.30405 18.1483 2.50624 18.2744C2.87548 18.5045 3.01971 18.5887 3.24127 18.7032C3.31426 18.741 3.38682 18.781 3.40252 18.7923C3.42947 18.8115 3.66569 18.9256 3.91504 19.0397C4.53806 19.325 5.33906 19.5913 6.07418 19.7576C6.33885 19.8174 6.83561 19.9065 7.0338 19.9296C7.06468 19.9333 7.1244 19.9406 7.16651 19.9459C7.54869 19.9941 7.68154 20.0001 8.35073 19.9997C9.01311 19.9993 9.2691 19.9895 9.74932 19.9461C10.1219 19.9123 10.5048 19.8531 10.8263 19.7793C11.244 19.6834 11.4563 19.6278 11.8268 19.517C12.1242 19.4281 12.6164 19.2456 12.954 19.0991C13.3082 18.9454 13.3585 18.9218 13.6644 18.7654C14.0255 18.5807 14.1754 18.4973 14.4657 18.3191C14.729 18.1576 14.7683 18.1326 14.9098 18.0369C15.2116 17.8329 15.5284 17.5948 15.8286 17.3465C16.1234 17.1027 16.5103 16.7493 16.6701 16.5779C16.707 16.5384 16.7926 16.4479 16.8604 16.3768C16.9766 16.255 17.1617 16.0441 17.3357 15.8351C17.6009 15.5167 18.029 14.921 18.2328 14.5872C18.3708 14.3609 18.5046 14.1352 18.5352 14.0766C18.5545 14.0398 18.5976 13.9609 18.6309 13.9013C18.7086 13.7627 18.9163 13.3495 18.9756 13.2155C19.1176 12.8948 19.2389 12.6022 19.3048 12.4213C19.4761 11.9517 19.4716 11.9655 19.6018 11.5137C19.8137 10.7782 19.9489 9.99611 19.9904 9.26536C20.0034 9.03662 20.0032 8.01857 19.9901 7.7802C19.967 7.36078 19.9237 6.87386 19.8928 6.68696C19.89 6.66995 19.8829 6.62121 19.877 6.57867C19.8098 6.09584 19.7463 5.81888 19.5445 5.12961C19.4483 4.80085 19.2717 4.32166 19.1057 3.93839C19.0848 3.89018 19.0527 3.81592 19.0344 3.77338C18.9908 3.67203 18.7198 3.12435 18.6771 3.05142C18.6589 3.02023 18.6243 2.95989 18.6002 2.91735C18.2136 2.23382 17.7878 1.63321 17.2436 1.00418C16.7402 0.422235 16.3812 0.0920557 16.1715 0.0180764C16.1065 -0.00488167 16.0185 -0.00642871 15.9613 0.0143738ZM14.4913 1.43158C14.4744 1.43625 14.4377 1.44062 14.4096 1.44129C14.3555 1.44258 14.2485 1.46279 14.1833 1.48402C14.1051 1.5095 14.0131 1.58644 13.6498 1.93034C13.0015 2.54407 11.7601 3.78806 7.27566 8.31756C3.57418 12.0562 2.89995 12.7418 2.47382 13.2003C2.15492 13.5433 1.8793 13.8763 1.78875 14.0278C1.74669 14.0982 1.69465 14.251 1.69465 14.3042C1.69465 14.3995 1.74515 14.6813 1.78245 14.794C1.87226 15.0654 2.06361 15.3006 2.51368 15.6926C2.80236 15.9441 3.26326 16.2972 3.5169 16.4612C3.74745 16.6103 3.95992 16.7404 4.11411 16.8269C4.25661 16.9069 4.74633 17.1563 4.86445 17.2091C5.39784 17.4475 5.72358 17.5651 6.28857 17.7233C6.39805 17.754 6.53128 17.7887 6.58462 17.8005C6.92633 17.876 7.29058 17.9439 7.47278 17.9659C7.5205 17.9717 7.594 17.9809 7.63612 17.9864C7.72303 17.9978 7.86761 18.0112 8.0904 18.0286C8.28902 18.044 9.18676 18.0441 9.38691 18.0287C9.56005 18.0153 9.70833 18.0009 9.82078 17.9863C9.86289 17.9809 9.93639 17.9717 9.98412 17.9659C10.223 17.937 10.6552 17.8523 10.9693 17.7728C11.7478 17.5758 12.4697 17.291 13.2458 16.8748C13.9783 16.482 14.6708 15.9647 15.3418 15.3091C15.582 15.0744 15.9814 14.6118 16.2354 14.2741C16.403 14.0513 16.5906 13.7787 16.7015 13.5971C16.9246 13.2314 16.9498 13.1858 17.1516 12.7824C17.5846 11.9166 17.8594 11.0707 18.0244 10.0956C18.066 9.85014 18.0854 9.69747 18.1106 9.42006C18.1569 8.90993 18.157 8.17754 18.1109 7.65644C18.0217 6.64949 17.7732 5.65504 17.3751 4.71182C17.2905 4.51125 17.0129 3.93655 16.9417 3.81463C16.9235 3.78343 16.8775 3.70453 16.8396 3.6393C16.6586 3.32829 16.497 3.08515 16.2536 2.75749C16.0603 2.49735 15.9594 2.37462 15.6529 2.02705C15.5307 1.88856 15.2901 1.6759 15.1435 1.57678C15.0099 1.48655 14.934 1.46057 14.7516 1.4427C14.573 1.42523 14.5221 1.42305 14.4913 1.43158ZM14.9404 5.46245C15.09 5.47524 15.1401 5.48533 15.2632 5.5275C15.6012 5.64327 15.8843 5.897 16.0504 6.23317C16.1232 6.38058 16.141 6.44385 16.181 6.69909C16.1926 6.77307 16.1912 6.79233 16.1597 6.99804C16.1378 7.14138 16.054 7.34089 15.9481 7.50174C15.8714 7.6183 15.676 7.81476 15.5639 7.88789C15.3947 7.99836 15.2225 8.06352 15.0194 8.09396C14.8906 8.11325 14.8188 8.10633 14.578 8.05139C14.1561 7.95513 13.584 7.70443 13.0212 7.36928C12.6459 7.14578 12.2874 6.87454 12.0764 6.65455C11.9209 6.49241 11.868 6.40602 11.8362 6.26154C11.8223 6.199 11.8217 6.17794 11.8321 6.13262C11.8713 5.9618 11.981 5.84023 12.1949 5.73072C12.4002 5.62561 12.6394 5.55064 12.9089 5.50696C12.9819 5.49512 13.0697 5.48079 13.1041 5.47512C13.1384 5.46944 13.2119 5.46426 13.2674 5.46359C13.3229 5.46292 13.3821 5.45876 13.3989 5.45436C13.4429 5.44285 14.7942 5.44994 14.9404 5.46245ZM10.8059 9.7297C10.9758 9.76236 11.2103 9.83917 11.4287 9.93372C11.5395 9.98172 12.0613 10.2485 12.1688 10.3121C12.2165 10.3404 12.2773 10.3752 12.3038 10.3895C12.3304 10.4037 12.3861 10.4375 12.4276 10.4644C12.4691 10.4913 12.5406 10.5365 12.5865 10.5649C12.6946 10.6318 12.9424 10.8083 13.0727 10.9113C13.2282 11.0342 13.4587 11.2766 13.531 11.3933C13.5987 11.5026 13.6619 11.6551 13.6834 11.7612C13.7333 12.0078 13.7333 12.0931 13.6831 12.3749C13.6557 12.5291 13.5861 12.6944 13.4855 12.844C13.4286 12.9287 13.2741 13.0834 13.1794 13.1505C13.0456 13.2455 12.8432 13.3322 12.7013 13.3553C12.6639 13.3614 12.6084 13.3707 12.578 13.376C12.5071 13.3883 12.3817 13.3883 12.3109 13.376C12.2804 13.3707 12.225 13.3614 12.1875 13.3553C12.0073 13.3259 11.7594 13.2065 11.6022 13.0734C11.5461 13.0258 11.4755 12.9597 11.4454 12.9264C11.3055 12.7716 11.029 12.3999 10.9124 12.2099C10.7067 11.8747 10.6534 11.7801 10.5143 11.504C10.3314 11.1412 10.1763 10.7322 10.1287 10.4875C10.0824 10.2497 10.0809 10.2297 10.0998 10.1113C10.1234 9.96408 10.1484 9.9012 10.2109 9.83213C10.3009 9.73271 10.3525 9.71562 10.566 9.71469C10.6679 9.71425 10.7533 9.7196 10.8059 9.7297ZM6.63148 11.5086C6.77812 11.5462 6.82936 11.5791 6.99156 11.7398C7.21847 11.9646 7.31894 12.0902 7.54243 12.4286C8.0204 13.1525 8.3927 13.9368 8.49372 14.4328C8.51962 14.56 8.51959 14.6863 8.49362 14.8155C8.41042 15.2292 8.16953 15.5714 7.80556 15.7928C7.72698 15.8406 7.63508 15.8754 7.48848 15.9128C7.37716 15.9412 7.35505 15.9434 7.18184 15.9434C6.97796 15.9434 6.8645 15.9269 6.71057 15.875C6.50351 15.805 6.29869 15.666 6.17565 15.5119C6.01872 15.3153 5.90244 15.0132 5.84562 14.6542C5.8317 14.5663 5.81773 14.4781 5.81456 14.4582C5.79556 14.3387 5.78456 14.1027 5.78479 13.8188C5.78506 13.4636 5.79511 13.29 5.83845 12.8906C5.8877 12.4369 6.00472 11.9884 6.13117 11.7688C6.16702 11.7066 6.29138 11.5759 6.34522 11.5439C6.38478 11.5204 6.48434 11.4906 6.52939 11.4888C6.54113 11.4883 6.58707 11.4972 6.63148 11.5086Z"/>
</mask>
<path fill-rule="evenodd" clip-rule="evenodd" d="M15.9613 0.0143738C15.9389 0.0225421 15.9199 0.0293079 15.9192 0.0293904C15.9038 0.0311849 15.7892 0.136445 15.7532 0.181815C15.5923 0.384322 15.6708 0.525639 16.3135 1.1901C16.5687 1.45389 16.6688 1.56401 16.8197 1.74676C17.1003 2.08665 17.2881 2.33934 17.525 2.69561C17.6506 2.88464 17.869 3.24545 17.9213 3.35052C17.9368 3.38172 17.9578 3.41909 17.9679 3.43357C17.9919 3.46799 18.2957 4.08203 18.3421 4.19007C18.8023 5.26026 19.0549 6.20567 19.1773 7.31609C19.2143 7.65231 19.2262 7.91989 19.2261 8.41449C19.226 8.98162 19.2124 9.24556 19.161 9.67275C19.0963 10.2114 18.9662 10.8582 18.8259 11.3384C18.8094 11.3951 18.7836 11.4833 18.7687 11.5343C18.6756 11.8534 18.5019 12.3174 18.3017 12.7823C18.2569 12.8862 17.9746 13.451 17.9022 13.5816C17.7733 13.814 17.7469 13.859 17.5794 14.1334C17.3536 14.5033 16.9781 15.0181 16.6629 15.3899C16.4904 15.5933 16.4057 15.6851 16.1298 15.9676C15.8749 16.2284 15.8013 16.2987 15.5088 16.5606C15.153 16.879 14.657 17.2501 14.2105 17.5318C14.1628 17.5619 14.0985 17.6029 14.0676 17.623C14.0367 17.6431 13.9805 17.6772 13.9425 17.6987C13.9046 17.7203 13.8403 17.7572 13.7996 17.7807C13.6137 17.8882 13.517 17.9408 13.3173 18.0434C13.1027 18.1537 13.049 18.179 12.7252 18.3228C12.1332 18.5858 11.4352 18.8134 10.7294 18.9738C10.5277 19.0196 10.0747 19.0995 9.89734 19.1206C9.85804 19.1252 9.78454 19.1343 9.734 19.1407C8.93652 19.2423 8.01145 19.2425 7.21756 19.1413C7.17545 19.1359 7.10194 19.1269 7.05422 19.1211C7.00649 19.1154 6.85949 19.0919 6.72754 19.069C6.51081 19.0313 6.42177 19.0137 6.17627 18.9601C6.06186 18.9352 5.79698 18.8668 5.68115 18.8323C5.625 18.8156 5.53771 18.7895 5.48718 18.7744C5.14898 18.6735 4.65491 18.4896 4.30297 18.3336C4.1252 18.2549 3.57171 17.9789 3.47096 17.9187C3.44008 17.9003 3.38036 17.8654 3.33825 17.841C2.68827 17.4658 2.10475 17.0332 1.49586 16.475C1.43987 16.4237 1.25152 16.2398 1.0773 16.0664C0.542236 15.5337 0.460637 15.4772 0.302545 15.5304C0.201765 15.5643 0.121596 15.6302 0.0549943 15.7339C0.0361082 15.7633 0.0160073 15.7902 0.0103312 15.7938C0.00455308 15.7974 0 15.8429 0 15.897C0 15.9886 0.00189882 15.9971 0.03473 16.0537C0.136991 16.23 0.298829 16.4218 0.607388 16.7324C0.975003 17.1025 1.26502 17.3601 1.69465 17.6982C1.92246 17.8774 2.30405 18.1483 2.50624 18.2744C2.87548 18.5045 3.01971 18.5887 3.24127 18.7032C3.31426 18.741 3.38682 18.781 3.40252 18.7923C3.42947 18.8115 3.66569 18.9256 3.91504 19.0397C4.53806 19.325 5.33906 19.5913 6.07418 19.7576C6.33885 19.8174 6.83561 19.9065 7.0338 19.9296C7.06468 19.9333 7.1244 19.9406 7.16651 19.9459C7.54869 19.9941 7.68154 20.0001 8.35073 19.9997C9.01311 19.9993 9.2691 19.9895 9.74932 19.9461C10.1219 19.9123 10.5048 19.8531 10.8263 19.7793C11.244 19.6834 11.4563 19.6278 11.8268 19.517C12.1242 19.4281 12.6164 19.2456 12.954 19.0991C13.3082 18.9454 13.3585 18.9218 13.6644 18.7654C14.0255 18.5807 14.1754 18.4973 14.4657 18.3191C14.729 18.1576 14.7683 18.1326 14.9098 18.0369C15.2116 17.8329 15.5284 17.5948 15.8286 17.3465C16.1234 17.1027 16.5103 16.7493 16.6701 16.5779C16.707 16.5384 16.7926 16.4479 16.8604 16.3768C16.9766 16.255 17.1617 16.0441 17.3357 15.8351C17.6009 15.5167 18.029 14.921 18.2328 14.5872C18.3708 14.3609 18.5046 14.1352 18.5352 14.0766C18.5545 14.0398 18.5976 13.9609 18.6309 13.9013C18.7086 13.7627 18.9163 13.3495 18.9756 13.2155C19.1176 12.8948 19.2389 12.6022 19.3048 12.4213C19.4761 11.9517 19.4716 11.9655 19.6018 11.5137C19.8137 10.7782 19.9489 9.99611 19.9904 9.26536C20.0034 9.03662 20.0032 8.01857 19.9901 7.7802C19.967 7.36078 19.9237 6.87386 19.8928 6.68696C19.89 6.66995 19.8829 6.62121 19.877 6.57867C19.8098 6.09584 19.7463 5.81888 19.5445 5.12961C19.4483 4.80085 19.2717 4.32166 19.1057 3.93839C19.0848 3.89018 19.0527 3.81592 19.0344 3.77338C18.9908 3.67203 18.7198 3.12435 18.6771 3.05142C18.6589 3.02023 18.6243 2.95989 18.6002 2.91735C18.2136 2.23382 17.7878 1.63321 17.2436 1.00418C16.7402 0.422235 16.3812 0.0920557 16.1715 0.0180764C16.1065 -0.00488167 16.0185 -0.00642871 15.9613 0.0143738ZM14.4913 1.43158C14.4744 1.43625 14.4377 1.44062 14.4096 1.44129C14.3555 1.44258 14.2485 1.46279 14.1833 1.48402C14.1051 1.5095 14.0131 1.58644 13.6498 1.93034C13.0015 2.54407 11.7601 3.78806 7.27566 8.31756C3.57418 12.0562 2.89995 12.7418 2.47382 13.2003C2.15492 13.5433 1.8793 13.8763 1.78875 14.0278C1.74669 14.0982 1.69465 14.251 1.69465 14.3042C1.69465 14.3995 1.74515 14.6813 1.78245 14.794C1.87226 15.0654 2.06361 15.3006 2.51368 15.6926C2.80236 15.9441 3.26326 16.2972 3.5169 16.4612C3.74745 16.6103 3.95992 16.7404 4.11411 16.8269C4.25661 16.9069 4.74633 17.1563 4.86445 17.2091C5.39784 17.4475 5.72358 17.5651 6.28857 17.7233C6.39805 17.754 6.53128 17.7887 6.58462 17.8005C6.92633 17.876 7.29058 17.9439 7.47278 17.9659C7.5205 17.9717 7.594 17.9809 7.63612 17.9864C7.72303 17.9978 7.86761 18.0112 8.0904 18.0286C8.28902 18.044 9.18676 18.0441 9.38691 18.0287C9.56005 18.0153 9.70833 18.0009 9.82078 17.9863C9.86289 17.9809 9.93639 17.9717 9.98412 17.9659C10.223 17.937 10.6552 17.8523 10.9693 17.7728C11.7478 17.5758 12.4697 17.291 13.2458 16.8748C13.9783 16.482 14.6708 15.9647 15.3418 15.3091C15.582 15.0744 15.9814 14.6118 16.2354 14.2741C16.403 14.0513 16.5906 13.7787 16.7015 13.5971C16.9246 13.2314 16.9498 13.1858 17.1516 12.7824C17.5846 11.9166 17.8594 11.0707 18.0244 10.0956C18.066 9.85014 18.0854 9.69747 18.1106 9.42006C18.1569 8.90993 18.157 8.17754 18.1109 7.65644C18.0217 6.64949 17.7732 5.65504 17.3751 4.71182C17.2905 4.51125 17.0129 3.93655 16.9417 3.81463C16.9235 3.78343 16.8775 3.70453 16.8396 3.6393C16.6586 3.32829 16.497 3.08515 16.2536 2.75749C16.0603 2.49735 15.9594 2.37462 15.6529 2.02705C15.5307 1.88856 15.2901 1.6759 15.1435 1.57678C15.0099 1.48655 14.934 1.46057 14.7516 1.4427C14.573 1.42523 14.5221 1.42305 14.4913 1.43158ZM14.9404 5.46245C15.09 5.47524 15.1401 5.48533 15.2632 5.5275C15.6012 5.64327 15.8843 5.897 16.0504 6.23317C16.1232 6.38058 16.141 6.44385 16.181 6.69909C16.1926 6.77307 16.1912 6.79233 16.1597 6.99804C16.1378 7.14138 16.054 7.34089 15.9481 7.50174C15.8714 7.6183 15.676 7.81476 15.5639 7.88789C15.3947 7.99836 15.2225 8.06352 15.0194 8.09396C14.8906 8.11325 14.8188 8.10633 14.578 8.05139C14.1561 7.95513 13.584 7.70443 13.0212 7.36928C12.6459 7.14578 12.2874 6.87454 12.0764 6.65455C11.9209 6.49241 11.868 6.40602 11.8362 6.26154C11.8223 6.199 11.8217 6.17794 11.8321 6.13262C11.8713 5.9618 11.981 5.84023 12.1949 5.73072C12.4002 5.62561 12.6394 5.55064 12.9089 5.50696C12.9819 5.49512 13.0697 5.48079 13.1041 5.47512C13.1384 5.46944 13.2119 5.46426 13.2674 5.46359C13.3229 5.46292 13.3821 5.45876 13.3989 5.45436C13.4429 5.44285 14.7942 5.44994 14.9404 5.46245ZM10.8059 9.7297C10.9758 9.76236 11.2103 9.83917 11.4287 9.93372C11.5395 9.98172 12.0613 10.2485 12.1688 10.3121C12.2165 10.3404 12.2773 10.3752 12.3038 10.3895C12.3304 10.4037 12.3861 10.4375 12.4276 10.4644C12.4691 10.4913 12.5406 10.5365 12.5865 10.5649C12.6946 10.6318 12.9424 10.8083 13.0727 10.9113C13.2282 11.0342 13.4587 11.2766 13.531 11.3933C13.5987 11.5026 13.6619 11.6551 13.6834 11.7612C13.7333 12.0078 13.7333 12.0931 13.6831 12.3749C13.6557 12.5291 13.5861 12.6944 13.4855 12.844C13.4286 12.9287 13.2741 13.0834 13.1794 13.1505C13.0456 13.2455 12.8432 13.3322 12.7013 13.3553C12.6639 13.3614 12.6084 13.3707 12.578 13.376C12.5071 13.3883 12.3817 13.3883 12.3109 13.376C12.2804 13.3707 12.225 13.3614 12.1875 13.3553C12.0073 13.3259 11.7594 13.2065 11.6022 13.0734C11.5461 13.0258 11.4755 12.9597 11.4454 12.9264C11.3055 12.7716 11.029 12.3999 10.9124 12.2099C10.7067 11.8747 10.6534 11.7801 10.5143 11.504C10.3314 11.1412 10.1763 10.7322 10.1287 10.4875C10.0824 10.2497 10.0809 10.2297 10.0998 10.1113C10.1234 9.96408 10.1484 9.9012 10.2109 9.83213C10.3009 9.73271 10.3525 9.71562 10.566 9.71469C10.6679 9.71425 10.7533 9.7196 10.8059 9.7297ZM6.63148 11.5086C6.77812 11.5462 6.82936 11.5791 6.99156 11.7398C7.21847 11.9646 7.31894 12.0902 7.54243 12.4286C8.0204 13.1525 8.3927 13.9368 8.49372 14.4328C8.51962 14.56 8.51959 14.6863 8.49362 14.8155C8.41042 15.2292 8.16953 15.5714 7.80556 15.7928C7.72698 15.8406 7.63508 15.8754 7.48848 15.9128C7.37716 15.9412 7.35505 15.9434 7.18184 15.9434C6.97796 15.9434 6.8645 15.9269 6.71057 15.875C6.50351 15.805 6.29869 15.666 6.17565 15.5119C6.01872 15.3153 5.90244 15.0132 5.84562 14.6542C5.8317 14.5663 5.81773 14.4781 5.81456 14.4582C5.79556 14.3387 5.78456 14.1027 5.78479 13.8188C5.78506 13.4636 5.79511 13.29 5.83845 12.8906C5.8877 12.4369 6.00472 11.9884 6.13117 11.7688C6.16702 11.7066 6.29138 11.5759 6.34522 11.5439C6.38478 11.5204 6.48434 11.4906 6.52939 11.4888C6.54113 11.4883 6.58707 11.4972 6.63148 11.5086Z" fill="#9969FF" stroke="#E4D8FF" stroke-width="2" mask="url(#path-1-inside-1)"/>
</svg>
