<svg width="21" height="20" viewBox="0 0 21 20" fill="none" xmlns="http://www.w3.org/2000/svg">
<path d="M1.57932 15.4668C1.72816 15.6715 1.90119 15.8913 2.09497 16.1166C2.52783 16.6198 3.45049 17.5393 3.81108 17.835L1.57932 15.4668ZM1.57932 15.4668C1.74298 15.4641 1.87282 15.4229 1.94867 15.3932C2.11911 15.3266 2.26183 15.2169 2.31923 15.1728C2.32158 15.1709 2.3238 15.1692 2.32586 15.1677C2.4869 15.0442 2.7655 14.8097 3.24277 14.4073L3.01142 14.1329L3.24277 14.4073C3.74867 13.9808 4.70369 13.0925 6.78114 11.1217L6.26476 10.5774L6.78114 11.1217C6.82556 11.0795 7.12995 10.7715 7.43909 10.4573C7.75745 10.1337 8.24593 9.6421 8.52278 9.36657C8.67072 9.21933 8.76967 9.12094 8.8473 9.04716C8.92477 8.97352 8.95819 8.94649 8.97267 8.93573C8.97292 8.93554 8.973 8.93539 8.9731 8.93519C8.97415 8.93319 8.97733 8.9271 9.18635 8.84405C9.54776 8.70046 10.0685 8.56905 10.8976 8.44148L10.8976 8.44148C11.0736 8.41439 11.2129 8.39284 11.3084 8.37246C11.4125 8.35025 11.6605 8.29423 11.8845 8.0789L11.8849 8.07854C11.9706 7.99608 12.1174 7.82703 12.1778 7.56339C12.2071 7.43543 12.2103 7.31103 12.1939 7.19443C12.4001 7.15259 12.612 7.0884 12.796 6.99609L12.7961 6.99604C12.9063 6.94072 12.9971 6.86845 13.0224 6.84832C13.0237 6.84732 13.0248 6.84644 13.0257 6.8457C13.07 6.81065 13.1188 6.76945 13.1693 6.72576C13.2713 6.63737 13.4084 6.51398 13.583 6.35388C13.9338 6.0323 14.4589 5.5415 15.2054 4.83863L17.3059 2.86074L17.306 2.86073C17.8794 2.3207 18.5945 1.64952 18.94 1.32687C19.0003 1.38522 19.0672 1.44988 19.1413 1.52156C19.1965 1.57501 19.2477 1.62458 19.2952 1.67056C18.9385 2.02738 18.2282 2.73542 17.6709 3.28954C15.0659 5.87988 14.6449 6.29986 14.1771 6.776L14.8699 7.45666L14.1771 6.776L14.1433 6.81046C13.9187 7.03893 13.7432 7.21753 13.6268 7.36612C13.4403 7.60414 13.3749 7.79812 13.3248 7.95241C13.3248 7.95242 13.3248 7.95243 13.3248 7.95243L14.276 8.26099C14.1847 8.54262 14.1758 8.89573 14.2108 10.8435C14.2253 11.6475 14.1754 12.3282 14.0814 12.6082C13.9883 12.8858 13.8089 13.1704 13.6471 13.2975C13.5964 13.3372 13.3865 13.5201 13.1806 13.7038M1.57932 15.4668L13.0067 12.5293M13.1806 13.7038L12.5149 12.9575C12.5149 12.9575 12.5149 12.9576 12.5149 12.9576M13.1806 13.7038C12.9747 13.8874 12.6607 14.1664 12.4829 14.3237L4.35616 18.2676C4.41062 18.3037 4.53909 18.3894 4.64233 18.4587C5.05638 18.7365 5.14069 18.7814 5.38404 18.8892C5.56123 18.9676 5.62084 18.9874 5.64641 18.9941C5.65295 18.9959 5.65543 18.9963 5.65997 18.9968C5.66355 18.9972 5.66971 18.9977 5.6799 18.9983C5.71153 18.9743 5.75502 18.9399 5.81418 18.8909C5.93243 18.793 6.08561 18.6602 6.30051 18.4727L6.30055 18.4727C6.46308 18.3309 6.71886 18.1079 6.86921 17.977C7.71419 17.2414 8.54453 16.5061 9.57035 15.5851C10.6903 14.5795 11.2967 14.0377 11.8205 13.5745C11.997 13.4184 12.3099 13.1405 12.5149 12.9576M13.1806 13.7038L12.5149 12.9576M12.5149 12.9576C12.695 12.7969 12.9099 12.6084 13.0067 12.5293M13.0067 12.5293C13.0058 12.5304 13.005 12.5314 13.0042 12.5323C13.0013 12.5357 13 12.5371 13.0002 12.5369C13.0006 12.5363 13.0095 12.5268 13.0278 12.5123M13.0067 12.5293C13.0145 12.5229 13.0216 12.5172 13.0278 12.5123M13.0278 12.5123C13.0284 12.5118 13.029 12.5114 13.0296 12.5109L13.0297 12.5108C13.029 12.5113 13.0284 12.5118 13.0278 12.5123ZM4.20954 18.1573C4.30253 18.2304 4.34186 18.2582 4.35606 18.2676L4.20954 18.1573ZM4.20954 18.1573C4.11925 18.0863 3.99352 17.9845 3.81111 17.835L4.20954 18.1573ZM11.8649 7.24409L11.7917 6.51411L8.98357 8.3337C9.1471 8.29508 9.30689 8.26468 9.41187 8.25107C9.41145 8.25112 9.41171 8.2511 9.41271 8.251C9.41692 8.2506 9.43422 8.24895 9.46911 8.24683C9.50949 8.24438 9.56132 8.242 9.62322 8.23988C9.74684 8.23564 9.8981 8.23284 10.0552 8.23181C10.3834 8.22965 10.6828 8.23561 10.803 8.24547L10.8031 8.24547C10.8355 8.24813 10.8567 8.2507 10.8685 8.25231C10.8685 8.25231 10.8685 8.25231 10.8685 8.25231C10.8763 8.25338 10.88 8.25403 10.88 8.254C10.88 8.25396 10.8759 8.25315 10.8683 8.25125C10.8683 8.25125 10.8683 8.25125 10.8683 8.25125C10.8571 8.24844 10.8384 8.24325 10.8143 8.23468C10.8113 8.23363 10.808 8.23242 10.8043 8.23105C10.8043 8.23104 10.8042 8.23103 10.8042 8.23103C10.7749 8.22013 10.7238 8.19896 10.6635 8.1624C10.6034 8.12599 10.4724 8.03766 10.3632 7.87099C10.3012 7.7763 10.252 7.66401 10.2254 7.54046C10.3878 7.51056 10.5608 7.48153 10.7455 7.45311C10.7917 7.44599 10.8329 7.43963 10.8696 7.43389C10.8696 7.43389 10.8696 7.43389 10.8696 7.43389C11.1343 7.39243 11.165 7.38345 11.1915 7.35794C11.2213 7.32927 11.1955 7.30374 11.12 7.28345L11.1017 7.26443C11.4734 7.264 11.7287 7.25774 11.8649 7.2441C11.8649 7.2441 11.8649 7.24409 11.8649 7.24409ZM8.97754 8.33513C8.97954 8.33465 8.98155 8.33418 8.98355 8.3337L6.91084 9.93745C7.33159 9.52636 7.72999 9.14823 8.03257 8.87401C8.03576 8.87112 8.03894 8.86824 8.04211 8.86537L7.83675 8.63848L8.04211 8.86536C8.28064 8.64947 8.37318 8.57312 8.43593 8.53005C8.47235 8.50504 8.50549 8.48504 8.65621 8.42494L8.65624 8.42492C8.6562 8.42494 8.65656 8.42479 8.65735 8.42449C8.65859 8.42402 8.66089 8.42316 8.66436 8.42192C8.66664 8.4211 8.66926 8.42018 8.67222 8.41916C8.67646 8.41769 8.68141 8.41602 8.6871 8.41415C8.70665 8.40771 8.73168 8.39997 8.76207 8.39119C8.82314 8.37355 8.89713 8.35421 8.97754 8.33513ZM2.39747 14.8858C2.3974 14.8858 2.3984 14.8844 2.40065 14.8814C2.39866 14.8843 2.39753 14.8857 2.39747 14.8858Z" fill="#9969FF" stroke="#E4D8FF" stroke-width="2"/>
</svg>
