<svg width="20" height="16" viewBox="0 0 20 16" fill="none" xmlns="http://www.w3.org/2000/svg">
<mask id="path-1-inside-1" fill="white">
<path fill-rule="evenodd" clip-rule="evenodd" d="M4.46314 0.0379117C4.44881 0.0589024 4.39852 0.120216 4.3514 0.174184C4.15984 0.393554 4.01019 0.56434 3.83963 0.758191C3.7408 0.870512 3.59065 1.04183 3.50594 1.13889C3.42123 1.23596 3.30111 1.37334 3.23899 1.4442C3.17687 1.51505 3.05675 1.65241 2.97204 1.74945C2.88734 1.84648 2.76721 1.98384 2.70509 2.0547C2.64297 2.12554 2.52285 2.2629 2.43814 2.35994C2.35344 2.45697 2.23331 2.59435 2.17119 2.66522C2.10908 2.73609 1.95661 2.91004 1.83237 3.05177C1.45851 3.47829 1.38726 3.55968 1.2266 3.74373C1.1419 3.84075 1.02177 3.97811 0.959652 4.04897C0.897535 4.11982 0.777408 4.25718 0.692703 4.35422C0.521629 4.55019 0.376758 4.71565 0.184472 4.93466C-0.0179269 5.1652 -0.0158221 5.16197 0.0157909 5.19331C0.0303601 5.20775 0.250634 5.20929 2.28743 5.20925C4.47106 5.20922 4.54394 5.20861 4.57436 5.19023C4.6075 5.1702 4.63881 5.13507 5.21031 4.47666C5.83908 3.75228 6.48086 3.0128 6.91468 2.51283C7.63466 1.68308 8.24747 0.977033 8.55644 0.621258C8.71965 0.433328 8.89684 0.229199 8.9502 0.167641C9.00356 0.106083 9.0538 0.0431314 9.06185 0.0277368L9.07647 -0.000244141H6.78284H4.4892L4.46314 0.0379117ZM10.9384 0.0277368C10.9465 0.0431314 11.0765 0.197657 11.2273 0.371139C11.5759 0.772375 12.6173 1.97242 13.7835 3.31666C15.5223 5.32095 15.3875 5.16719 15.4256 5.19023C15.4561 5.20861 15.5289 5.20922 17.7126 5.20925C19.7494 5.20929 19.9696 5.20775 19.9842 5.19331C20.0158 5.16197 20.0179 5.1652 19.8155 4.93466C19.6225 4.71481 19.478 4.54973 19.3073 4.35421C19.2226 4.25717 19.0701 4.08316 18.9685 3.96751C18.8668 3.85187 18.7144 3.67789 18.6297 3.58088C18.545 3.48387 18.4248 3.34653 18.3627 3.27568C18.3006 3.20482 18.1805 3.06746 18.0958 2.97042C18.0111 2.87339 17.8586 2.69938 17.7569 2.58373C17.6553 2.46809 17.5028 2.29411 17.4181 2.19709C17.3334 2.10009 17.2133 1.96274 17.1512 1.8919C17.089 1.82104 16.9689 1.68368 16.8842 1.58664C16.7995 1.4896 16.647 1.31559 16.5454 1.19994C16.4437 1.08431 16.2913 0.910347 16.2066 0.81338C15.9243 0.490195 15.7866 0.333034 15.6684 0.198878C15.604 0.125741 15.5423 0.0510067 15.5314 0.0328242L15.5115 -0.000244141H13.2175H10.9235L10.9384 0.0277368ZM9.93106 0.307546C9.90773 0.331325 9.82476 0.424516 9.74668 0.514625C9.61098 0.671217 9.04529 1.32327 8.13649 2.37063C7.09374 3.57234 6.78182 3.93165 6.53851 4.21136C5.79086 5.07087 5.72899 5.1438 5.7289 5.1657C5.72885 5.17809 5.73774 5.19296 5.74866 5.19876C5.77648 5.21352 14.2235 5.21352 14.2513 5.19876C14.2623 5.19296 14.2711 5.17809 14.2711 5.1657C14.271 5.15074 14.1151 4.96337 13.8079 4.60898C12.9331 3.59978 12.0579 2.59035 11.576 2.03483C11.3106 1.72886 10.872 1.22249 10.6013 0.909563C10.3306 0.596645 10.0913 0.323449 10.0695 0.302459C10.0158 0.250628 9.98581 0.251727 9.93106 0.307546ZM0.0689651 6.05462C0.0590777 6.06033 0.0509974 6.07375 0.0509974 6.08446C0.0509974 6.10414 0.1794 6.24478 0.492491 6.56808C0.585666 6.66428 0.761237 6.84724 0.882648 6.97464C1.00406 7.10204 1.17963 7.28521 1.2728 7.3817C1.36598 7.47819 1.54617 7.66589 1.67323 7.7988C1.80029 7.93172 1.98048 8.11941 2.07365 8.2159C2.16683 8.31239 2.3424 8.49557 2.46381 8.62297C2.58522 8.75037 2.76079 8.93351 2.85397 9.02996C2.94714 9.12641 3.12271 9.30957 3.24412 9.43698C3.36553 9.5644 3.54573 9.75211 3.64455 9.85413C3.74337 9.95614 3.92356 10.1439 4.04497 10.2713C4.16638 10.3987 4.34195 10.5818 4.43513 10.6783C4.52831 10.7747 4.70388 10.9579 4.82529 11.0853C4.9467 11.2127 5.12227 11.3958 5.21544 11.4923C5.30862 11.5887 5.48419 11.7719 5.6056 11.8993C5.72701 12.0267 5.9072 12.2144 6.00602 12.3164C6.10485 12.4185 6.28504 12.6062 6.40645 12.7336C6.52786 12.861 6.70343 13.0442 6.79661 13.1406C6.88978 13.2371 7.06535 13.4202 7.18676 13.5476C7.30817 13.675 7.48374 13.8582 7.57692 13.9546C7.6701 14.0511 7.84567 14.2345 7.96708 14.3623C8.2586 14.6692 8.46352 14.872 8.49074 14.8805C8.50286 14.8843 8.51567 14.8846 8.51919 14.8811C8.53057 14.8698 8.50135 14.7814 8.44921 14.6694C8.42121 14.6092 8.3752 14.5096 8.34697 14.4481C8.31873 14.3865 8.27253 14.2858 8.24429 14.2242C8.21606 14.1627 8.16986 14.0619 8.14162 14.0004C8.11339 13.9388 8.06718 13.8381 8.03895 13.7765C8.01071 13.715 7.96401 13.6131 7.93516 13.5502C7.90629 13.4872 7.85598 13.3785 7.82333 13.3085C7.79068 13.2385 7.74038 13.1298 7.71151 13.0668C7.68266 13.0039 7.63596 12.902 7.60772 12.8405C7.57949 12.7789 7.53328 12.6782 7.50505 12.6166C7.47681 12.555 7.43061 12.4543 7.40238 12.3928C7.37414 12.3312 7.32794 12.2305 7.2997 12.1689C7.27147 12.1074 7.22527 12.0066 7.19703 11.9451C7.1688 11.8835 7.12259 11.7828 7.09436 11.7212C7.06612 11.6597 7.01992 11.5589 6.99168 11.4974C6.96345 11.4358 6.91725 11.3351 6.88901 11.2735C6.86078 11.212 6.81457 11.1112 6.78634 11.0497C6.7581 10.9881 6.7119 10.8874 6.68367 10.8258C6.65543 10.7643 6.60923 10.6635 6.58099 10.602C6.55276 10.5404 6.50656 10.4397 6.47832 10.3781C6.45009 10.3166 6.40388 10.2158 6.37565 10.1543C6.34741 10.0927 6.30121 9.992 6.27297 9.93044C6.24474 9.86888 6.19854 9.76815 6.1703 9.70659C6.14207 9.64503 6.09586 9.5443 6.06763 9.48275C6.03939 9.42119 5.99319 9.32046 5.96496 9.2589C5.93672 9.19734 5.89052 9.09661 5.86228 9.03505C5.83405 8.97349 5.78784 8.87276 5.75961 8.8112C5.73137 8.74965 5.68517 8.64891 5.65694 8.58736C5.6287 8.5258 5.5825 8.42507 5.55426 8.36351C5.52603 8.30195 5.47983 8.20122 5.45159 8.13966C5.42336 8.0781 5.37715 7.97737 5.34892 7.91581C5.32068 7.85425 5.27448 7.75352 5.24625 7.69197C5.21801 7.63041 5.17181 7.52968 5.14357 7.46812C5.11534 7.40656 5.06913 7.30583 5.0409 7.24427C5.01266 7.18271 4.96646 7.08198 4.93823 7.02042C4.90999 6.95887 4.86379 6.85813 4.83555 6.79658C4.80732 6.73502 4.76112 6.63429 4.73288 6.57273C4.70465 6.51117 4.65894 6.41159 4.63131 6.35143C4.60367 6.29126 4.56589 6.20858 4.54737 6.16769C4.52884 6.12678 4.50027 6.08215 4.48388 6.06848L4.45409 6.04363L2.27051 6.04394C0.806413 6.04415 0.0810087 6.04767 0.0689651 6.05462ZM5.46431 6.05041C5.45719 6.05326 5.44657 6.06444 5.44073 6.07526C5.42957 6.09592 5.43664 6.11425 5.55523 6.37178C5.58293 6.43194 5.6287 6.53152 5.65694 6.59308C5.68517 6.65464 5.73137 6.75537 5.75961 6.81693C5.78784 6.87848 5.83405 6.97922 5.86228 7.04077C5.89052 7.10233 5.93672 7.20306 5.96496 7.26462C5.99319 7.32618 6.03939 7.42691 6.06763 7.48847C6.09586 7.55003 6.14207 7.65076 6.1703 7.71232C6.19854 7.77387 6.24474 7.8746 6.27297 7.93616C6.30121 7.99772 6.34741 8.09845 6.37565 8.16001C6.40388 8.22157 6.4496 8.32115 6.47725 8.38131C6.5049 8.44148 6.54697 8.53419 6.57073 8.58736C6.59448 8.64052 6.63655 8.73323 6.6642 8.7934C6.69185 8.85356 6.73757 8.95314 6.7658 9.0147C6.79404 9.07626 6.84024 9.17699 6.86848 9.23855C6.89671 9.30011 6.94291 9.40084 6.97115 9.46239C6.99938 9.52395 7.04559 9.62468 7.07382 9.68624C7.10206 9.7478 7.14826 9.84853 7.1765 9.91009C7.20473 9.97165 7.25093 10.0724 7.27917 10.1339C7.3074 10.1955 7.35361 10.2962 7.38184 10.3578C7.41008 10.4193 7.45628 10.5201 7.48451 10.5816C7.51275 10.6432 7.55895 10.7439 7.58719 10.8055C7.61542 10.867 7.66162 10.9678 7.68986 11.0293C7.71809 11.0909 7.7643 11.1916 7.79253 11.2532C7.82077 11.3147 7.86697 11.4155 7.89521 11.477C7.92344 11.5386 7.96964 11.6393 7.99788 11.7009C8.02611 11.7624 8.07232 11.8632 8.10055 11.9247C8.12879 11.9863 8.17499 12.087 8.20322 12.1486C8.23146 12.2101 8.27766 12.3109 8.3059 12.3724C8.33413 12.434 8.38033 12.5347 8.40857 12.5963C8.43681 12.6578 8.48301 12.7585 8.51124 12.8201C8.53948 12.8817 8.58568 12.9824 8.61392 13.044C8.64215 13.1055 8.68835 13.2062 8.71659 13.2678C8.74482 13.3294 8.79103 13.4301 8.81926 13.4916C8.8475 13.5532 8.8937 13.6539 8.92194 13.7155C8.95017 13.7771 8.99637 13.8778 9.02461 13.9393C9.05284 14.0009 9.09904 14.1016 9.12728 14.1632C9.15552 14.2247 9.20172 14.3255 9.22995 14.387C9.25819 14.4486 9.30439 14.5493 9.33263 14.6109C9.36086 14.6724 9.40706 14.7732 9.4353 14.8347C9.46353 14.8963 9.50974 14.997 9.53797 15.0586C9.56621 15.1201 9.61241 15.2209 9.64065 15.2824C9.66888 15.344 9.71456 15.4436 9.74217 15.5037C9.76977 15.5639 9.81837 15.6703 9.85018 15.7403C9.95646 15.974 9.97131 15.9998 10 15.9998C10.0292 15.9998 10.0589 15.9505 10.1457 15.7581C10.1919 15.6557 10.2219 15.5901 10.348 15.3155C10.3756 15.2553 10.4218 15.1546 10.4506 15.0916C10.4795 15.0287 10.5257 14.928 10.5533 14.8678C10.5809 14.8076 10.6276 14.7058 10.6571 14.6414C10.6866 14.5771 10.7333 14.4752 10.7609 14.415C10.7885 14.3549 10.8337 14.2564 10.8613 14.1963C10.9796 13.9386 11.0214 13.8472 11.0639 13.7537C11.0886 13.6991 11.1291 13.6098 11.1539 13.5552C11.1786 13.5007 11.222 13.4057 11.2503 13.3441C11.2786 13.2826 11.3258 13.1795 11.3553 13.1152C11.4235 12.9662 11.4981 12.8035 11.5606 12.6675C11.5876 12.6087 11.6338 12.508 11.6633 12.4436C11.6928 12.3793 11.7395 12.2774 11.7671 12.2172C11.7947 12.1571 11.8409 12.0564 11.8698 11.9934C11.8986 11.9304 11.9448 11.8297 11.9724 11.7695C12.0001 11.7094 12.0458 11.6098 12.074 11.5482C12.1022 11.4867 12.1484 11.386 12.1767 11.3244C12.2049 11.2628 12.2516 11.161 12.2805 11.098C12.3093 11.0351 12.355 10.9355 12.382 10.8767C12.409 10.8179 12.4547 10.7184 12.4836 10.6554C12.5475 10.5158 12.6213 10.355 12.6912 10.2026C12.7201 10.1397 12.764 10.0435 12.7888 9.98895C12.8135 9.93439 12.854 9.84509 12.8788 9.79053C12.9035 9.73598 12.9469 9.64096 12.9752 9.57941C13.0035 9.51785 13.0507 9.41483 13.0802 9.35047C13.1097 9.28612 13.1564 9.18424 13.184 9.12408C13.2479 8.98483 13.3225 8.82212 13.3893 8.67639C13.4182 8.61343 13.4644 8.5127 13.492 8.45254C13.5196 8.39237 13.5648 8.29394 13.5924 8.23378C13.6563 8.09452 13.731 7.93182 13.7978 7.78608C13.8646 7.64035 13.9392 7.47764 14.0031 7.33839C14.0307 7.27822 14.0769 7.1775 14.1058 7.11454C14.1346 7.05159 14.1819 6.94857 14.2107 6.88561C14.2396 6.82265 14.2853 6.72306 14.3123 6.6643C14.4978 6.2604 14.5537 6.1361 14.5633 6.10622C14.5678 6.09224 14.5631 6.0785 14.5489 6.0645L14.5279 6.04363L10.0026 6.04444C7.51364 6.04488 5.47143 6.04757 5.46431 6.05041ZM15.5162 6.06843C15.4998 6.08208 15.4779 6.11298 15.4675 6.13711C15.4497 6.1781 15.4097 6.26611 15.2865 6.53457C15.2589 6.59474 15.2132 6.69432 15.185 6.75588C15.1567 6.81743 15.1105 6.91817 15.0823 6.97972C15.0541 7.04128 15.0079 7.14201 14.9796 7.20357C14.9514 7.26513 14.9052 7.36586 14.877 7.42742C14.8487 7.48898 14.8025 7.58971 14.7743 7.65127C14.7461 7.71282 14.7003 7.81241 14.6727 7.87257C14.645 7.93273 14.603 8.02545 14.5792 8.07861C14.5555 8.13177 14.5134 8.22449 14.4857 8.28465C14.4581 8.34482 14.4124 8.4444 14.3841 8.50596C14.3559 8.56751 14.3097 8.66825 14.2815 8.7298C14.2532 8.79136 14.207 8.89209 14.1788 8.95365C14.1505 9.01521 14.1043 9.11594 14.0761 9.1775C14.0479 9.23906 14.0017 9.33979 13.9734 9.40135C13.9452 9.4629 13.899 9.56363 13.8708 9.62519C13.8425 9.68675 13.7963 9.78748 13.7681 9.84904C13.7399 9.9106 13.6937 10.0113 13.6654 10.0729C13.6372 10.1344 13.591 10.2352 13.5627 10.2967C13.5345 10.3583 13.4888 10.4579 13.4611 10.518C13.4335 10.5782 13.3914 10.6709 13.3677 10.7241C13.3439 10.7772 13.3018 10.87 13.2742 10.9301C13.2465 10.9903 13.2008 11.0899 13.1726 11.1514C13.1444 11.213 13.0982 11.3137 13.0699 11.3753C13.0417 11.4368 12.9955 11.5376 12.9672 11.5991C12.939 11.6607 12.8928 11.7614 12.8646 11.823C12.8363 11.8845 12.7901 11.9853 12.7619 12.0468C12.7337 12.1084 12.6875 12.2091 12.6592 12.2707C12.631 12.3322 12.5848 12.433 12.5566 12.4945C12.5283 12.5561 12.4821 12.6568 12.4539 12.7184C12.4256 12.7799 12.3794 12.8806 12.3512 12.9422C12.323 13.0038 12.2773 13.1034 12.2496 13.1635C12.222 13.2237 12.1799 13.3164 12.1561 13.3695C12.1324 13.4227 12.0903 13.5154 12.0627 13.5756C12.035 13.6357 11.9893 13.7353 11.9611 13.7969C11.9328 13.8585 11.8866 13.9592 11.8584 14.0207C11.8301 14.0823 11.7839 14.183 11.7557 14.2446C11.7275 14.3061 11.6813 14.4069 11.653 14.4684C11.6248 14.53 11.5787 14.6296 11.5505 14.6898C11.5223 14.7501 11.4962 14.8216 11.4925 14.8487C11.4859 14.8963 11.4864 14.8977 11.5067 14.887C11.5376 14.8706 11.8205 14.5888 12.074 14.3217C12.1954 14.1939 12.371 14.0104 12.4641 13.9139C12.5573 13.8175 12.7329 13.6343 12.8543 13.5069C12.9757 13.3795 13.1513 13.1964 13.2445 13.0999C13.3376 13.0035 13.5132 12.8203 13.6346 12.6929C13.756 12.5655 13.9316 12.3824 14.0248 12.2859C14.118 12.1895 14.2935 12.0063 14.4149 11.8789C14.5363 11.7515 14.7119 11.5684 14.8051 11.4719C14.8983 11.3755 15.0738 11.1923 15.1952 11.0649C15.3167 10.9375 15.4968 10.7498 15.5957 10.6478C15.6945 10.5458 15.8747 10.358 15.9961 10.2306C16.1175 10.1032 16.2931 9.92005 16.3863 9.8236C16.4794 9.72716 16.655 9.54401 16.7764 9.41661C16.8978 9.28921 17.0734 9.10606 17.1666 9.00961C17.2597 8.91317 17.4353 8.73002 17.5567 8.60262C17.6781 8.47522 17.8537 8.29207 17.9469 8.19562C18.0401 8.09917 18.2156 7.91603 18.337 7.78863C18.4584 7.66123 18.634 7.47808 18.7272 7.38163C18.8204 7.28518 18.9959 7.10204 19.1174 6.97464C19.2388 6.84724 19.4143 6.66428 19.5075 6.56808C19.8217 6.24365 19.949 6.10416 19.949 6.0843C19.949 6.07353 19.9401 6.05997 19.9291 6.05417C19.9156 6.047 19.2119 6.04363 17.7276 6.04363H15.5459L15.5162 6.06843Z"/>
</mask>
<path fill-rule="evenodd" clip-rule="evenodd" d="M4.46314 0.0379117C4.44881 0.0589024 4.39852 0.120216 4.3514 0.174184C4.15984 0.393554 4.01019 0.56434 3.83963 0.758191C3.7408 0.870512 3.59065 1.04183 3.50594 1.13889C3.42123 1.23596 3.30111 1.37334 3.23899 1.4442C3.17687 1.51505 3.05675 1.65241 2.97204 1.74945C2.88734 1.84648 2.76721 1.98384 2.70509 2.0547C2.64297 2.12554 2.52285 2.2629 2.43814 2.35994C2.35344 2.45697 2.23331 2.59435 2.17119 2.66522C2.10908 2.73609 1.95661 2.91004 1.83237 3.05177C1.45851 3.47829 1.38726 3.55968 1.2266 3.74373C1.1419 3.84075 1.02177 3.97811 0.959652 4.04897C0.897535 4.11982 0.777408 4.25718 0.692703 4.35422C0.521629 4.55019 0.376758 4.71565 0.184472 4.93466C-0.0179269 5.1652 -0.0158221 5.16197 0.0157909 5.19331C0.0303601 5.20775 0.250634 5.20929 2.28743 5.20925C4.47106 5.20922 4.54394 5.20861 4.57436 5.19023C4.6075 5.1702 4.63881 5.13507 5.21031 4.47666C5.83908 3.75228 6.48086 3.0128 6.91468 2.51283C7.63466 1.68308 8.24747 0.977033 8.55644 0.621258C8.71965 0.433328 8.89684 0.229199 8.9502 0.167641C9.00356 0.106083 9.0538 0.0431314 9.06185 0.0277368L9.07647 -0.000244141H6.78284H4.4892L4.46314 0.0379117ZM10.9384 0.0277368C10.9465 0.0431314 11.0765 0.197657 11.2273 0.371139C11.5759 0.772375 12.6173 1.97242 13.7835 3.31666C15.5223 5.32095 15.3875 5.16719 15.4256 5.19023C15.4561 5.20861 15.5289 5.20922 17.7126 5.20925C19.7494 5.20929 19.9696 5.20775 19.9842 5.19331C20.0158 5.16197 20.0179 5.1652 19.8155 4.93466C19.6225 4.71481 19.478 4.54973 19.3073 4.35421C19.2226 4.25717 19.0701 4.08316 18.9685 3.96751C18.8668 3.85187 18.7144 3.67789 18.6297 3.58088C18.545 3.48387 18.4248 3.34653 18.3627 3.27568C18.3006 3.20482 18.1805 3.06746 18.0958 2.97042C18.0111 2.87339 17.8586 2.69938 17.7569 2.58373C17.6553 2.46809 17.5028 2.29411 17.4181 2.19709C17.3334 2.10009 17.2133 1.96274 17.1512 1.8919C17.089 1.82104 16.9689 1.68368 16.8842 1.58664C16.7995 1.4896 16.647 1.31559 16.5454 1.19994C16.4437 1.08431 16.2913 0.910347 16.2066 0.81338C15.9243 0.490195 15.7866 0.333034 15.6684 0.198878C15.604 0.125741 15.5423 0.0510067 15.5314 0.0328242L15.5115 -0.000244141H13.2175H10.9235L10.9384 0.0277368ZM9.93106 0.307546C9.90773 0.331325 9.82476 0.424516 9.74668 0.514625C9.61098 0.671217 9.04529 1.32327 8.13649 2.37063C7.09374 3.57234 6.78182 3.93165 6.53851 4.21136C5.79086 5.07087 5.72899 5.1438 5.7289 5.1657C5.72885 5.17809 5.73774 5.19296 5.74866 5.19876C5.77648 5.21352 14.2235 5.21352 14.2513 5.19876C14.2623 5.19296 14.2711 5.17809 14.2711 5.1657C14.271 5.15074 14.1151 4.96337 13.8079 4.60898C12.9331 3.59978 12.0579 2.59035 11.576 2.03483C11.3106 1.72886 10.872 1.22249 10.6013 0.909563C10.3306 0.596645 10.0913 0.323449 10.0695 0.302459C10.0158 0.250628 9.98581 0.251727 9.93106 0.307546ZM0.0689651 6.05462C0.0590777 6.06033 0.0509974 6.07375 0.0509974 6.08446C0.0509974 6.10414 0.1794 6.24478 0.492491 6.56808C0.585666 6.66428 0.761237 6.84724 0.882648 6.97464C1.00406 7.10204 1.17963 7.28521 1.2728 7.3817C1.36598 7.47819 1.54617 7.66589 1.67323 7.7988C1.80029 7.93172 1.98048 8.11941 2.07365 8.2159C2.16683 8.31239 2.3424 8.49557 2.46381 8.62297C2.58522 8.75037 2.76079 8.93351 2.85397 9.02996C2.94714 9.12641 3.12271 9.30957 3.24412 9.43698C3.36553 9.5644 3.54573 9.75211 3.64455 9.85413C3.74337 9.95614 3.92356 10.1439 4.04497 10.2713C4.16638 10.3987 4.34195 10.5818 4.43513 10.6783C4.52831 10.7747 4.70388 10.9579 4.82529 11.0853C4.9467 11.2127 5.12227 11.3958 5.21544 11.4923C5.30862 11.5887 5.48419 11.7719 5.6056 11.8993C5.72701 12.0267 5.9072 12.2144 6.00602 12.3164C6.10485 12.4185 6.28504 12.6062 6.40645 12.7336C6.52786 12.861 6.70343 13.0442 6.79661 13.1406C6.88978 13.2371 7.06535 13.4202 7.18676 13.5476C7.30817 13.675 7.48374 13.8582 7.57692 13.9546C7.6701 14.0511 7.84567 14.2345 7.96708 14.3623C8.2586 14.6692 8.46352 14.872 8.49074 14.8805C8.50286 14.8843 8.51567 14.8846 8.51919 14.8811C8.53057 14.8698 8.50135 14.7814 8.44921 14.6694C8.42121 14.6092 8.3752 14.5096 8.34697 14.4481C8.31873 14.3865 8.27253 14.2858 8.24429 14.2242C8.21606 14.1627 8.16986 14.0619 8.14162 14.0004C8.11339 13.9388 8.06718 13.8381 8.03895 13.7765C8.01071 13.715 7.96401 13.6131 7.93516 13.5502C7.90629 13.4872 7.85598 13.3785 7.82333 13.3085C7.79068 13.2385 7.74038 13.1298 7.71151 13.0668C7.68266 13.0039 7.63596 12.902 7.60772 12.8405C7.57949 12.7789 7.53328 12.6782 7.50505 12.6166C7.47681 12.555 7.43061 12.4543 7.40238 12.3928C7.37414 12.3312 7.32794 12.2305 7.2997 12.1689C7.27147 12.1074 7.22527 12.0066 7.19703 11.9451C7.1688 11.8835 7.12259 11.7828 7.09436 11.7212C7.06612 11.6597 7.01992 11.5589 6.99168 11.4974C6.96345 11.4358 6.91725 11.3351 6.88901 11.2735C6.86078 11.212 6.81457 11.1112 6.78634 11.0497C6.7581 10.9881 6.7119 10.8874 6.68367 10.8258C6.65543 10.7643 6.60923 10.6635 6.58099 10.602C6.55276 10.5404 6.50656 10.4397 6.47832 10.3781C6.45009 10.3166 6.40388 10.2158 6.37565 10.1543C6.34741 10.0927 6.30121 9.992 6.27297 9.93044C6.24474 9.86888 6.19854 9.76815 6.1703 9.70659C6.14207 9.64503 6.09586 9.5443 6.06763 9.48275C6.03939 9.42119 5.99319 9.32046 5.96496 9.2589C5.93672 9.19734 5.89052 9.09661 5.86228 9.03505C5.83405 8.97349 5.78784 8.87276 5.75961 8.8112C5.73137 8.74965 5.68517 8.64891 5.65694 8.58736C5.6287 8.5258 5.5825 8.42507 5.55426 8.36351C5.52603 8.30195 5.47983 8.20122 5.45159 8.13966C5.42336 8.0781 5.37715 7.97737 5.34892 7.91581C5.32068 7.85425 5.27448 7.75352 5.24625 7.69197C5.21801 7.63041 5.17181 7.52968 5.14357 7.46812C5.11534 7.40656 5.06913 7.30583 5.0409 7.24427C5.01266 7.18271 4.96646 7.08198 4.93823 7.02042C4.90999 6.95887 4.86379 6.85813 4.83555 6.79658C4.80732 6.73502 4.76112 6.63429 4.73288 6.57273C4.70465 6.51117 4.65894 6.41159 4.63131 6.35143C4.60367 6.29126 4.56589 6.20858 4.54737 6.16769C4.52884 6.12678 4.50027 6.08215 4.48388 6.06848L4.45409 6.04363L2.27051 6.04394C0.806413 6.04415 0.0810087 6.04767 0.0689651 6.05462ZM5.46431 6.05041C5.45719 6.05326 5.44657 6.06444 5.44073 6.07526C5.42957 6.09592 5.43664 6.11425 5.55523 6.37178C5.58293 6.43194 5.6287 6.53152 5.65694 6.59308C5.68517 6.65464 5.73137 6.75537 5.75961 6.81693C5.78784 6.87848 5.83405 6.97922 5.86228 7.04077C5.89052 7.10233 5.93672 7.20306 5.96496 7.26462C5.99319 7.32618 6.03939 7.42691 6.06763 7.48847C6.09586 7.55003 6.14207 7.65076 6.1703 7.71232C6.19854 7.77387 6.24474 7.8746 6.27297 7.93616C6.30121 7.99772 6.34741 8.09845 6.37565 8.16001C6.40388 8.22157 6.4496 8.32115 6.47725 8.38131C6.5049 8.44148 6.54697 8.53419 6.57073 8.58736C6.59448 8.64052 6.63655 8.73323 6.6642 8.7934C6.69185 8.85356 6.73757 8.95314 6.7658 9.0147C6.79404 9.07626 6.84024 9.17699 6.86848 9.23855C6.89671 9.30011 6.94291 9.40084 6.97115 9.46239C6.99938 9.52395 7.04559 9.62468 7.07382 9.68624C7.10206 9.7478 7.14826 9.84853 7.1765 9.91009C7.20473 9.97165 7.25093 10.0724 7.27917 10.1339C7.3074 10.1955 7.35361 10.2962 7.38184 10.3578C7.41008 10.4193 7.45628 10.5201 7.48451 10.5816C7.51275 10.6432 7.55895 10.7439 7.58719 10.8055C7.61542 10.867 7.66162 10.9678 7.68986 11.0293C7.71809 11.0909 7.7643 11.1916 7.79253 11.2532C7.82077 11.3147 7.86697 11.4155 7.89521 11.477C7.92344 11.5386 7.96964 11.6393 7.99788 11.7009C8.02611 11.7624 8.07232 11.8632 8.10055 11.9247C8.12879 11.9863 8.17499 12.087 8.20322 12.1486C8.23146 12.2101 8.27766 12.3109 8.3059 12.3724C8.33413 12.434 8.38033 12.5347 8.40857 12.5963C8.43681 12.6578 8.48301 12.7585 8.51124 12.8201C8.53948 12.8817 8.58568 12.9824 8.61392 13.044C8.64215 13.1055 8.68835 13.2062 8.71659 13.2678C8.74482 13.3294 8.79103 13.4301 8.81926 13.4916C8.8475 13.5532 8.8937 13.6539 8.92194 13.7155C8.95017 13.7771 8.99637 13.8778 9.02461 13.9393C9.05284 14.0009 9.09904 14.1016 9.12728 14.1632C9.15552 14.2247 9.20172 14.3255 9.22995 14.387C9.25819 14.4486 9.30439 14.5493 9.33263 14.6109C9.36086 14.6724 9.40706 14.7732 9.4353 14.8347C9.46353 14.8963 9.50974 14.997 9.53797 15.0586C9.56621 15.1201 9.61241 15.2209 9.64065 15.2824C9.66888 15.344 9.71456 15.4436 9.74217 15.5037C9.76977 15.5639 9.81837 15.6703 9.85018 15.7403C9.95646 15.974 9.97131 15.9998 10 15.9998C10.0292 15.9998 10.0589 15.9505 10.1457 15.7581C10.1919 15.6557 10.2219 15.5901 10.348 15.3155C10.3756 15.2553 10.4218 15.1546 10.4506 15.0916C10.4795 15.0287 10.5257 14.928 10.5533 14.8678C10.5809 14.8076 10.6276 14.7058 10.6571 14.6414C10.6866 14.5771 10.7333 14.4752 10.7609 14.415C10.7885 14.3549 10.8337 14.2564 10.8613 14.1963C10.9796 13.9386 11.0214 13.8472 11.0639 13.7537C11.0886 13.6991 11.1291 13.6098 11.1539 13.5552C11.1786 13.5007 11.222 13.4057 11.2503 13.3441C11.2786 13.2826 11.3258 13.1795 11.3553 13.1152C11.4235 12.9662 11.4981 12.8035 11.5606 12.6675C11.5876 12.6087 11.6338 12.508 11.6633 12.4436C11.6928 12.3793 11.7395 12.2774 11.7671 12.2172C11.7947 12.1571 11.8409 12.0564 11.8698 11.9934C11.8986 11.9304 11.9448 11.8297 11.9724 11.7695C12.0001 11.7094 12.0458 11.6098 12.074 11.5482C12.1022 11.4867 12.1484 11.386 12.1767 11.3244C12.2049 11.2628 12.2516 11.161 12.2805 11.098C12.3093 11.0351 12.355 10.9355 12.382 10.8767C12.409 10.8179 12.4547 10.7184 12.4836 10.6554C12.5475 10.5158 12.6213 10.355 12.6912 10.2026C12.7201 10.1397 12.764 10.0435 12.7888 9.98895C12.8135 9.93439 12.854 9.84509 12.8788 9.79053C12.9035 9.73598 12.9469 9.64096 12.9752 9.57941C13.0035 9.51785 13.0507 9.41483 13.0802 9.35047C13.1097 9.28612 13.1564 9.18424 13.184 9.12408C13.2479 8.98483 13.3225 8.82212 13.3893 8.67639C13.4182 8.61343 13.4644 8.5127 13.492 8.45254C13.5196 8.39237 13.5648 8.29394 13.5924 8.23378C13.6563 8.09452 13.731 7.93182 13.7978 7.78608C13.8646 7.64035 13.9392 7.47764 14.0031 7.33839C14.0307 7.27822 14.0769 7.1775 14.1058 7.11454C14.1346 7.05159 14.1819 6.94857 14.2107 6.88561C14.2396 6.82265 14.2853 6.72306 14.3123 6.6643C14.4978 6.2604 14.5537 6.1361 14.5633 6.10622C14.5678 6.09224 14.5631 6.0785 14.5489 6.0645L14.5279 6.04363L10.0026 6.04444C7.51364 6.04488 5.47143 6.04757 5.46431 6.05041ZM15.5162 6.06843C15.4998 6.08208 15.4779 6.11298 15.4675 6.13711C15.4497 6.1781 15.4097 6.26611 15.2865 6.53457C15.2589 6.59474 15.2132 6.69432 15.185 6.75588C15.1567 6.81743 15.1105 6.91817 15.0823 6.97972C15.0541 7.04128 15.0079 7.14201 14.9796 7.20357C14.9514 7.26513 14.9052 7.36586 14.877 7.42742C14.8487 7.48898 14.8025 7.58971 14.7743 7.65127C14.7461 7.71282 14.7003 7.81241 14.6727 7.87257C14.645 7.93273 14.603 8.02545 14.5792 8.07861C14.5555 8.13177 14.5134 8.22449 14.4857 8.28465C14.4581 8.34482 14.4124 8.4444 14.3841 8.50596C14.3559 8.56751 14.3097 8.66825 14.2815 8.7298C14.2532 8.79136 14.207 8.89209 14.1788 8.95365C14.1505 9.01521 14.1043 9.11594 14.0761 9.1775C14.0479 9.23906 14.0017 9.33979 13.9734 9.40135C13.9452 9.4629 13.899 9.56363 13.8708 9.62519C13.8425 9.68675 13.7963 9.78748 13.7681 9.84904C13.7399 9.9106 13.6937 10.0113 13.6654 10.0729C13.6372 10.1344 13.591 10.2352 13.5627 10.2967C13.5345 10.3583 13.4888 10.4579 13.4611 10.518C13.4335 10.5782 13.3914 10.6709 13.3677 10.7241C13.3439 10.7772 13.3018 10.87 13.2742 10.9301C13.2465 10.9903 13.2008 11.0899 13.1726 11.1514C13.1444 11.213 13.0982 11.3137 13.0699 11.3753C13.0417 11.4368 12.9955 11.5376 12.9672 11.5991C12.939 11.6607 12.8928 11.7614 12.8646 11.823C12.8363 11.8845 12.7901 11.9853 12.7619 12.0468C12.7337 12.1084 12.6875 12.2091 12.6592 12.2707C12.631 12.3322 12.5848 12.433 12.5566 12.4945C12.5283 12.5561 12.4821 12.6568 12.4539 12.7184C12.4256 12.7799 12.3794 12.8806 12.3512 12.9422C12.323 13.0038 12.2773 13.1034 12.2496 13.1635C12.222 13.2237 12.1799 13.3164 12.1561 13.3695C12.1324 13.4227 12.0903 13.5154 12.0627 13.5756C12.035 13.6357 11.9893 13.7353 11.9611 13.7969C11.9328 13.8585 11.8866 13.9592 11.8584 14.0207C11.8301 14.0823 11.7839 14.183 11.7557 14.2446C11.7275 14.3061 11.6813 14.4069 11.653 14.4684C11.6248 14.53 11.5787 14.6296 11.5505 14.6898C11.5223 14.7501 11.4962 14.8216 11.4925 14.8487C11.4859 14.8963 11.4864 14.8977 11.5067 14.887C11.5376 14.8706 11.8205 14.5888 12.074 14.3217C12.1954 14.1939 12.371 14.0104 12.4641 13.9139C12.5573 13.8175 12.7329 13.6343 12.8543 13.5069C12.9757 13.3795 13.1513 13.1964 13.2445 13.0999C13.3376 13.0035 13.5132 12.8203 13.6346 12.6929C13.756 12.5655 13.9316 12.3824 14.0248 12.2859C14.118 12.1895 14.2935 12.0063 14.4149 11.8789C14.5363 11.7515 14.7119 11.5684 14.8051 11.4719C14.8983 11.3755 15.0738 11.1923 15.1952 11.0649C15.3167 10.9375 15.4968 10.7498 15.5957 10.6478C15.6945 10.5458 15.8747 10.358 15.9961 10.2306C16.1175 10.1032 16.2931 9.92005 16.3863 9.8236C16.4794 9.72716 16.655 9.54401 16.7764 9.41661C16.8978 9.28921 17.0734 9.10606 17.1666 9.00961C17.2597 8.91317 17.4353 8.73002 17.5567 8.60262C17.6781 8.47522 17.8537 8.29207 17.9469 8.19562C18.0401 8.09917 18.2156 7.91603 18.337 7.78863C18.4584 7.66123 18.634 7.47808 18.7272 7.38163C18.8204 7.28518 18.9959 7.10204 19.1174 6.97464C19.2388 6.84724 19.4143 6.66428 19.5075 6.56808C19.8217 6.24365 19.949 6.10416 19.949 6.0843C19.949 6.07353 19.9401 6.05997 19.9291 6.05417C19.9156 6.047 19.2119 6.04363 17.7276 6.04363H15.5459L15.5162 6.06843Z" fill="#9969FF" stroke="#E4D8FF" stroke-width="2" mask="url(#path-1-inside-1)"/>
</svg>
