<svg width="16" height="19" viewBox="0 0 16 19" fill="none" xmlns="http://www.w3.org/2000/svg">
<mask id="path-1-inside-1" fill="white">
<path fill-rule="evenodd" clip-rule="evenodd" d="M1.67942 0.00765231C1.64829 0.0207803 1.6365 0.0462208 1.61718 0.141986C1.60823 0.186341 1.58719 0.26975 1.57042 0.327344C1.55366 0.384937 1.52744 0.486621 1.51218 0.553308C1.4969 0.619996 1.45554 0.786162 1.42025 0.922568C1.38496 1.05897 1.34205 1.23258 1.32489 1.30836C1.30773 1.38414 1.28383 1.4778 1.27178 1.51649C1.25973 1.55518 1.23791 1.64199 1.22329 1.70939C1.20867 1.77679 1.18444 1.87162 1.16944 1.92012C1.15444 1.96862 1.13279 2.05542 1.12134 2.11302C1.10989 2.17061 1.08867 2.25741 1.07419 2.30591C1.05971 2.35441 1.03609 2.44866 1.0217 2.51534C1.00731 2.58203 0.985287 2.66884 0.972746 2.70824C0.960206 2.74765 0.936383 2.83941 0.919804 2.91216C0.879903 3.08721 0.777704 3.50133 0.750834 3.59682C0.739092 3.63857 0.724016 3.70104 0.717325 3.73564C0.710644 3.77025 0.693129 3.83722 0.678415 3.88445C0.663701 3.93169 0.638204 4.02986 0.621754 4.10261C0.605314 4.17536 0.561833 4.35145 0.525138 4.49392C0.488455 4.63638 0.445495 4.80999 0.429673 4.87971C0.413862 4.94943 0.385084 5.06351 0.365735 5.13323C0.346376 5.20295 0.322179 5.29719 0.311962 5.34266C0.301744 5.38813 0.264059 5.5419 0.228207 5.68436C0.192365 5.82683 0.14198 6.0279 0.11626 6.13117C0.0905399 6.23444 0.0598545 6.35348 0.0480706 6.39571C-0.011531 6.60923 -0.0146536 6.67109 0.0328444 6.69693C0.057499 6.71034 0.279338 6.77489 0.364052 6.7933C0.401322 6.8014 0.478034 6.82262 0.534525 6.84045C0.591026 6.85828 0.655145 6.87599 0.677029 6.87982C0.698903 6.88364 0.778013 6.90425 0.852829 6.92562C0.927635 6.94699 1.032 6.97413 1.08474 6.98594C1.13748 6.99775 1.22618 7.02214 1.28185 7.04015C1.33752 7.05816 1.42861 7.08297 1.48428 7.09527C1.53995 7.10757 1.63105 7.13176 1.68672 7.14902C1.74239 7.16629 1.83581 7.19175 1.89432 7.20563C1.95283 7.21949 2.03673 7.24279 2.08078 7.25739C2.12481 7.27199 2.18629 7.28891 2.21738 7.29499C2.24848 7.30107 2.34197 7.32531 2.42514 7.34887C2.50832 7.37242 2.61233 7.39937 2.65628 7.40875C2.70023 7.41813 2.78174 7.44073 2.83741 7.45896C2.98732 7.50807 2.99979 7.50936 3.03281 7.47922C3.05416 7.45972 3.06493 7.43352 3.07734 7.37083C3.08633 7.32537 3.10742 7.24104 3.12419 7.18345C3.14096 7.12585 3.16667 7.02665 3.18131 6.96299C3.19596 6.89934 3.23719 6.73069 3.27295 6.58822C3.3087 6.44576 3.34814 6.28703 3.36057 6.2355C3.39539 6.09127 3.47454 5.77355 3.51983 5.59618C3.54228 5.50828 3.57729 5.36939 3.59764 5.28755C3.63388 5.14183 3.66894 5.00341 3.69045 4.92111C3.71176 4.8396 3.36723 4.84664 7.33106 4.84664C11.1641 4.84664 10.9606 4.84372 10.9285 4.89835C10.913 4.92475 10.8994 4.93142 10.6632 5.0291C10.2366 5.20544 10.2478 5.20039 9.85343 5.39693C9.51355 5.56632 9.10476 5.78599 8.87054 5.92508C8.74012 6.00253 8.64736 6.05725 8.57222 6.10106C8.53266 6.12412 8.47393 6.16054 8.4417 6.18199C8.40947 6.20344 8.34235 6.2474 8.29254 6.27967C8.107 6.39986 7.88942 6.54678 7.77579 6.62862C7.71133 6.67504 7.61655 6.74322 7.56517 6.78014C7.07203 7.13442 6.3698 7.72714 5.87283 8.20856C5.53615 8.5347 5.31998 8.76363 4.91422 9.22374C4.8187 9.33207 4.50129 9.72226 4.35471 9.91156C4.04958 10.3056 3.64033 10.8979 3.39513 11.3004C3.36559 11.3489 3.31551 11.431 3.28386 11.4829C3.2522 11.5348 3.20952 11.6083 3.18901 11.6461C3.1685 11.684 3.13288 11.7457 3.10987 11.7833C2.88195 12.155 2.3866 13.1665 2.21003 13.6207C2.19235 13.6662 2.14849 13.7753 2.11256 13.8632C2.07663 13.9511 2.03882 14.0503 2.02852 14.0836C2.01822 14.117 2.00249 14.1591 1.99355 14.1773C1.98461 14.1955 1.9568 14.2724 1.93175 14.3482C1.90671 14.424 1.87789 14.5033 1.86773 14.5245C1.85755 14.5458 1.84106 14.5929 1.83107 14.6293C1.82107 14.6656 1.79434 14.75 1.77168 14.8166C1.749 14.8833 1.70659 15.0173 1.67742 15.1143C1.64824 15.2113 1.60499 15.3551 1.58128 15.4339C1.55759 15.5127 1.52647 15.6268 1.51215 15.6874C1.49783 15.7481 1.47431 15.8423 1.45989 15.8969C1.3906 16.159 1.25379 16.8047 1.2123 17.0653C1.19686 17.1623 1.17468 17.2888 1.16302 17.3464C1.15135 17.4039 1.13747 17.4957 1.13217 17.5503C1.12689 17.6048 1.11758 17.6842 1.11152 17.7266C1.10545 17.7691 1.0958 17.8435 1.09006 17.892C1.08433 17.9405 1.07473 18.0149 1.06872 18.0573C1.04372 18.2341 1.03506 18.3196 1.0258 18.4817C1.02043 18.5757 1.0137 18.6674 1.01087 18.6856C1.00802 18.7038 1.00359 18.7725 1.00102 18.8383C0.996868 18.9449 0.998552 18.9602 1.01657 18.9788C1.03635 18.9993 1.12697 18.9998 5.25647 18.9998H9.47616L9.50356 18.9714C9.52869 18.9454 9.5304 18.9378 9.52405 18.8805C9.52025 18.846 9.51258 18.7484 9.50703 18.6636C9.50146 18.5787 9.49198 18.4596 9.48596 18.399C9.44166 17.9535 9.42978 17.654 9.42978 16.9826C9.42978 16.3116 9.44149 16.0159 9.48588 15.5662C9.49186 15.5056 9.50126 15.3915 9.50677 15.3127C9.51855 15.1442 9.53441 15.0102 9.57462 14.7395C9.58362 14.6789 9.59642 14.5871 9.60304 14.5356C9.62301 14.3803 9.64563 14.2394 9.67206 14.1057C9.68584 14.036 9.70736 13.9194 9.71988 13.8467C9.74545 13.6981 9.78839 13.4943 9.84411 13.2569C9.86476 13.169 9.89317 13.0456 9.90724 12.9827C9.92132 12.9198 9.94668 12.8206 9.96358 12.7623C9.9805 12.7039 10.0097 12.5992 10.0284 12.5294C10.0986 12.2681 10.1338 12.1469 10.1615 12.0721C10.1772 12.0298 10.2015 11.9554 10.2155 11.9068C10.2531 11.7762 10.4258 11.2709 10.4604 11.1902C10.4708 11.1659 10.4979 11.0977 10.5206 11.0386C10.5434 10.9795 10.5806 10.8828 10.6035 10.8237C10.7771 10.3746 11.172 9.53568 11.4233 9.0821C11.5133 8.91976 11.5509 8.85155 11.5921 8.77623C11.6153 8.73379 11.6531 8.66863 11.6761 8.63143C11.6991 8.59423 11.7419 8.52355 11.7712 8.47436C11.9263 8.21398 12.2603 7.70333 12.4158 7.48882C12.4598 7.4282 12.5269 7.33498 12.565 7.28166C12.7536 7.01771 13.0666 6.61598 13.2088 6.45546C13.2385 6.42184 13.318 6.33017 13.3854 6.25176C13.4528 6.17334 13.5631 6.04938 13.6305 5.97629C13.6979 5.9032 13.8081 5.78211 13.8755 5.7072C14.0618 5.50018 14.6397 4.94311 14.9608 4.66113C15.1217 4.51987 15.4644 4.23616 15.5802 4.14834C15.769 4.00529 15.9234 3.88385 15.9626 3.8477L16 3.81324L15.9867 3.69338C15.9794 3.62746 15.9688 3.54128 15.9631 3.50187C15.9574 3.46247 15.9478 3.38311 15.9418 3.32551C15.9357 3.26792 15.9263 3.17863 15.9209 3.1271C15.9156 3.07557 15.9065 3.00117 15.9009 2.96176C15.8953 2.92236 15.8852 2.85043 15.8786 2.80193C15.8719 2.75343 15.8619 2.68151 15.8564 2.64211C15.8394 2.52156 15.8254 2.39939 15.8151 2.28387C15.8098 2.22324 15.8001 2.14388 15.7936 2.10751C15.7872 2.07113 15.7773 2.00169 15.7717 1.95319C15.7662 1.90469 15.7566 1.83029 15.7504 1.78785C15.7443 1.74541 15.7348 1.66109 15.7294 1.60046C15.724 1.53984 15.7149 1.45799 15.7092 1.41859C15.7035 1.37918 15.6934 1.30726 15.6868 1.25876C15.6801 1.21026 15.6702 1.13834 15.6646 1.09893C15.6488 0.985728 15.6326 0.847647 15.6239 0.749545C15.6107 0.602381 15.5902 0.594071 15.3991 0.658102C15.3259 0.682638 15.2267 0.709852 15.1788 0.71857C15.1308 0.727278 15.0445 0.746591 14.987 0.761461C14.9294 0.776342 14.8176 0.799181 14.7385 0.812209C14.6594 0.825238 14.5444 0.845 14.4828 0.856133C14.3818 0.874398 14.292 0.887506 14.1366 0.906674C14.0148 0.921687 13.3051 0.957366 13.1297 0.957278C13.0185 0.957233 12.5984 0.939774 12.3146 0.923394C12.0894 0.910398 11.982 0.89813 11.6967 0.852772C11.6381 0.843458 11.5494 0.830309 11.4996 0.823563C11.3469 0.802884 11.2755 0.78926 11.1459 0.756071C11.0774 0.738523 11.0127 0.72417 11.0021 0.724181C10.9915 0.724203 10.8965 0.70002 10.791 0.670446C10.6855 0.640872 10.5681 0.609237 10.53 0.600155C10.4919 0.591072 10.3936 0.565873 10.3116 0.544159C10.0799 0.482851 9.81833 0.419285 9.73623 0.404349C9.69521 0.396876 9.6113 0.378775 9.54977 0.364104C9.40547 0.329713 9.31397 0.310943 9.18219 0.288721C9.12359 0.278834 9.01811 0.259014 8.94779 0.244673C8.87747 0.230322 8.78158 0.212961 8.7347 0.206094C8.68782 0.199227 8.58713 0.183983 8.51095 0.172211C8.43477 0.160438 8.33649 0.145613 8.29254 0.139264C8.24859 0.132915 8.19824 0.125144 8.18066 0.121991C8.14201 0.11508 8.00036 0.0996037 7.83439 0.0841719C7.767 0.077911 7.66152 0.0680243 7.59999 0.0622154C6.90392 -0.00351285 6.2499 -0.0114167 5.77274 0.0401364C5.72 0.0458351 5.6265 0.0556677 5.56497 0.0619947C5.50344 0.0683107 5.41714 0.0782195 5.37319 0.0840064C5.32924 0.0897933 5.25253 0.0996704 5.20272 0.105964C5.15291 0.112247 5.05462 0.130169 4.9843 0.145778C4.91398 0.161397 4.81809 0.181437 4.77121 0.190322C4.72433 0.199206 4.65241 0.21671 4.61139 0.229232C4.57037 0.241754 4.47927 0.268603 4.40895 0.288918C4.18155 0.35458 3.84596 0.4921 3.71108 0.574891C3.53202 0.684787 3.49747 0.703625 3.48103 0.700274C3.43681 0.69129 3.41263 0.619456 3.29121 0.136487C3.27777 0.0830597 3.2587 0.0309775 3.24882 0.0207485C3.23236 0.00371844 3.16744 0.00199801 2.46679 2.90846e-06C2.03908 -0.00120959 1.69245 0.00215199 1.67942 0.00765231Z"/>
</mask>
<path fill-rule="evenodd" clip-rule="evenodd" d="M1.67942 0.00765231C1.64829 0.0207803 1.6365 0.0462208 1.61718 0.141986C1.60823 0.186341 1.58719 0.26975 1.57042 0.327344C1.55366 0.384937 1.52744 0.486621 1.51218 0.553308C1.4969 0.619996 1.45554 0.786162 1.42025 0.922568C1.38496 1.05897 1.34205 1.23258 1.32489 1.30836C1.30773 1.38414 1.28383 1.4778 1.27178 1.51649C1.25973 1.55518 1.23791 1.64199 1.22329 1.70939C1.20867 1.77679 1.18444 1.87162 1.16944 1.92012C1.15444 1.96862 1.13279 2.05542 1.12134 2.11302C1.10989 2.17061 1.08867 2.25741 1.07419 2.30591C1.05971 2.35441 1.03609 2.44866 1.0217 2.51534C1.00731 2.58203 0.985287 2.66884 0.972746 2.70824C0.960206 2.74765 0.936383 2.83941 0.919804 2.91216C0.879903 3.08721 0.777704 3.50133 0.750834 3.59682C0.739092 3.63857 0.724016 3.70104 0.717325 3.73564C0.710644 3.77025 0.693129 3.83722 0.678415 3.88445C0.663701 3.93169 0.638204 4.02986 0.621754 4.10261C0.605314 4.17536 0.561833 4.35145 0.525138 4.49392C0.488455 4.63638 0.445495 4.80999 0.429673 4.87971C0.413862 4.94943 0.385084 5.06351 0.365735 5.13323C0.346376 5.20295 0.322179 5.29719 0.311962 5.34266C0.301744 5.38813 0.264059 5.5419 0.228207 5.68436C0.192365 5.82683 0.14198 6.0279 0.11626 6.13117C0.0905399 6.23444 0.0598545 6.35348 0.0480706 6.39571C-0.011531 6.60923 -0.0146536 6.67109 0.0328444 6.69693C0.057499 6.71034 0.279338 6.77489 0.364052 6.7933C0.401322 6.8014 0.478034 6.82262 0.534525 6.84045C0.591026 6.85828 0.655145 6.87599 0.677029 6.87982C0.698903 6.88364 0.778013 6.90425 0.852829 6.92562C0.927635 6.94699 1.032 6.97413 1.08474 6.98594C1.13748 6.99775 1.22618 7.02214 1.28185 7.04015C1.33752 7.05816 1.42861 7.08297 1.48428 7.09527C1.53995 7.10757 1.63105 7.13176 1.68672 7.14902C1.74239 7.16629 1.83581 7.19175 1.89432 7.20563C1.95283 7.21949 2.03673 7.24279 2.08078 7.25739C2.12481 7.27199 2.18629 7.28891 2.21738 7.29499C2.24848 7.30107 2.34197 7.32531 2.42514 7.34887C2.50832 7.37242 2.61233 7.39937 2.65628 7.40875C2.70023 7.41813 2.78174 7.44073 2.83741 7.45896C2.98732 7.50807 2.99979 7.50936 3.03281 7.47922C3.05416 7.45972 3.06493 7.43352 3.07734 7.37083C3.08633 7.32537 3.10742 7.24104 3.12419 7.18345C3.14096 7.12585 3.16667 7.02665 3.18131 6.96299C3.19596 6.89934 3.23719 6.73069 3.27295 6.58822C3.3087 6.44576 3.34814 6.28703 3.36057 6.2355C3.39539 6.09127 3.47454 5.77355 3.51983 5.59618C3.54228 5.50828 3.57729 5.36939 3.59764 5.28755C3.63388 5.14183 3.66894 5.00341 3.69045 4.92111C3.71176 4.8396 3.36723 4.84664 7.33106 4.84664C11.1641 4.84664 10.9606 4.84372 10.9285 4.89835C10.913 4.92475 10.8994 4.93142 10.6632 5.0291C10.2366 5.20544 10.2478 5.20039 9.85343 5.39693C9.51355 5.56632 9.10476 5.78599 8.87054 5.92508C8.74012 6.00253 8.64736 6.05725 8.57222 6.10106C8.53266 6.12412 8.47393 6.16054 8.4417 6.18199C8.40947 6.20344 8.34235 6.2474 8.29254 6.27967C8.107 6.39986 7.88942 6.54678 7.77579 6.62862C7.71133 6.67504 7.61655 6.74322 7.56517 6.78014C7.07203 7.13442 6.3698 7.72714 5.87283 8.20856C5.53615 8.5347 5.31998 8.76363 4.91422 9.22374C4.8187 9.33207 4.50129 9.72226 4.35471 9.91156C4.04958 10.3056 3.64033 10.8979 3.39513 11.3004C3.36559 11.3489 3.31551 11.431 3.28386 11.4829C3.2522 11.5348 3.20952 11.6083 3.18901 11.6461C3.1685 11.684 3.13288 11.7457 3.10987 11.7833C2.88195 12.155 2.3866 13.1665 2.21003 13.6207C2.19235 13.6662 2.14849 13.7753 2.11256 13.8632C2.07663 13.9511 2.03882 14.0503 2.02852 14.0836C2.01822 14.117 2.00249 14.1591 1.99355 14.1773C1.98461 14.1955 1.9568 14.2724 1.93175 14.3482C1.90671 14.424 1.87789 14.5033 1.86773 14.5245C1.85755 14.5458 1.84106 14.5929 1.83107 14.6293C1.82107 14.6656 1.79434 14.75 1.77168 14.8166C1.749 14.8833 1.70659 15.0173 1.67742 15.1143C1.64824 15.2113 1.60499 15.3551 1.58128 15.4339C1.55759 15.5127 1.52647 15.6268 1.51215 15.6874C1.49783 15.7481 1.47431 15.8423 1.45989 15.8969C1.3906 16.159 1.25379 16.8047 1.2123 17.0653C1.19686 17.1623 1.17468 17.2888 1.16302 17.3464C1.15135 17.4039 1.13747 17.4957 1.13217 17.5503C1.12689 17.6048 1.11758 17.6842 1.11152 17.7266C1.10545 17.7691 1.0958 17.8435 1.09006 17.892C1.08433 17.9405 1.07473 18.0149 1.06872 18.0573C1.04372 18.2341 1.03506 18.3196 1.0258 18.4817C1.02043 18.5757 1.0137 18.6674 1.01087 18.6856C1.00802 18.7038 1.00359 18.7725 1.00102 18.8383C0.996868 18.9449 0.998552 18.9602 1.01657 18.9788C1.03635 18.9993 1.12697 18.9998 5.25647 18.9998H9.47616L9.50356 18.9714C9.52869 18.9454 9.5304 18.9378 9.52405 18.8805C9.52025 18.846 9.51258 18.7484 9.50703 18.6636C9.50146 18.5787 9.49198 18.4596 9.48596 18.399C9.44166 17.9535 9.42978 17.654 9.42978 16.9826C9.42978 16.3116 9.44149 16.0159 9.48588 15.5662C9.49186 15.5056 9.50126 15.3915 9.50677 15.3127C9.51855 15.1442 9.53441 15.0102 9.57462 14.7395C9.58362 14.6789 9.59642 14.5871 9.60304 14.5356C9.62301 14.3803 9.64563 14.2394 9.67206 14.1057C9.68584 14.036 9.70736 13.9194 9.71988 13.8467C9.74545 13.6981 9.78839 13.4943 9.84411 13.2569C9.86476 13.169 9.89317 13.0456 9.90724 12.9827C9.92132 12.9198 9.94668 12.8206 9.96358 12.7623C9.9805 12.7039 10.0097 12.5992 10.0284 12.5294C10.0986 12.2681 10.1338 12.1469 10.1615 12.0721C10.1772 12.0298 10.2015 11.9554 10.2155 11.9068C10.2531 11.7762 10.4258 11.2709 10.4604 11.1902C10.4708 11.1659 10.4979 11.0977 10.5206 11.0386C10.5434 10.9795 10.5806 10.8828 10.6035 10.8237C10.7771 10.3746 11.172 9.53568 11.4233 9.0821C11.5133 8.91976 11.5509 8.85155 11.5921 8.77623C11.6153 8.73379 11.6531 8.66863 11.6761 8.63143C11.6991 8.59423 11.7419 8.52355 11.7712 8.47436C11.9263 8.21398 12.2603 7.70333 12.4158 7.48882C12.4598 7.4282 12.5269 7.33498 12.565 7.28166C12.7536 7.01771 13.0666 6.61598 13.2088 6.45546C13.2385 6.42184 13.318 6.33017 13.3854 6.25176C13.4528 6.17334 13.5631 6.04938 13.6305 5.97629C13.6979 5.9032 13.8081 5.78211 13.8755 5.7072C14.0618 5.50018 14.6397 4.94311 14.9608 4.66113C15.1217 4.51987 15.4644 4.23616 15.5802 4.14834C15.769 4.00529 15.9234 3.88385 15.9626 3.8477L16 3.81324L15.9867 3.69338C15.9794 3.62746 15.9688 3.54128 15.9631 3.50187C15.9574 3.46247 15.9478 3.38311 15.9418 3.32551C15.9357 3.26792 15.9263 3.17863 15.9209 3.1271C15.9156 3.07557 15.9065 3.00117 15.9009 2.96176C15.8953 2.92236 15.8852 2.85043 15.8786 2.80193C15.8719 2.75343 15.8619 2.68151 15.8564 2.64211C15.8394 2.52156 15.8254 2.39939 15.8151 2.28387C15.8098 2.22324 15.8001 2.14388 15.7936 2.10751C15.7872 2.07113 15.7773 2.00169 15.7717 1.95319C15.7662 1.90469 15.7566 1.83029 15.7504 1.78785C15.7443 1.74541 15.7348 1.66109 15.7294 1.60046C15.724 1.53984 15.7149 1.45799 15.7092 1.41859C15.7035 1.37918 15.6934 1.30726 15.6868 1.25876C15.6801 1.21026 15.6702 1.13834 15.6646 1.09893C15.6488 0.985728 15.6326 0.847647 15.6239 0.749545C15.6107 0.602381 15.5902 0.594071 15.3991 0.658102C15.3259 0.682638 15.2267 0.709852 15.1788 0.71857C15.1308 0.727278 15.0445 0.746591 14.987 0.761461C14.9294 0.776342 14.8176 0.799181 14.7385 0.812209C14.6594 0.825238 14.5444 0.845 14.4828 0.856133C14.3818 0.874398 14.292 0.887506 14.1366 0.906674C14.0148 0.921687 13.3051 0.957366 13.1297 0.957278C13.0185 0.957233 12.5984 0.939774 12.3146 0.923394C12.0894 0.910398 11.982 0.89813 11.6967 0.852772C11.6381 0.843458 11.5494 0.830309 11.4996 0.823563C11.3469 0.802884 11.2755 0.78926 11.1459 0.756071C11.0774 0.738523 11.0127 0.72417 11.0021 0.724181C10.9915 0.724203 10.8965 0.70002 10.791 0.670446C10.6855 0.640872 10.5681 0.609237 10.53 0.600155C10.4919 0.591072 10.3936 0.565873 10.3116 0.544159C10.0799 0.482851 9.81833 0.419285 9.73623 0.404349C9.69521 0.396876 9.6113 0.378775 9.54977 0.364104C9.40547 0.329713 9.31397 0.310943 9.18219 0.288721C9.12359 0.278834 9.01811 0.259014 8.94779 0.244673C8.87747 0.230322 8.78158 0.212961 8.7347 0.206094C8.68782 0.199227 8.58713 0.183983 8.51095 0.172211C8.43477 0.160438 8.33649 0.145613 8.29254 0.139264C8.24859 0.132915 8.19824 0.125144 8.18066 0.121991C8.14201 0.11508 8.00036 0.0996037 7.83439 0.0841719C7.767 0.077911 7.66152 0.0680243 7.59999 0.0622154C6.90392 -0.00351285 6.2499 -0.0114167 5.77274 0.0401364C5.72 0.0458351 5.6265 0.0556677 5.56497 0.0619947C5.50344 0.0683107 5.41714 0.0782195 5.37319 0.0840064C5.32924 0.0897933 5.25253 0.0996704 5.20272 0.105964C5.15291 0.112247 5.05462 0.130169 4.9843 0.145778C4.91398 0.161397 4.81809 0.181437 4.77121 0.190322C4.72433 0.199206 4.65241 0.21671 4.61139 0.229232C4.57037 0.241754 4.47927 0.268603 4.40895 0.288918C4.18155 0.35458 3.84596 0.4921 3.71108 0.574891C3.53202 0.684787 3.49747 0.703625 3.48103 0.700274C3.43681 0.69129 3.41263 0.619456 3.29121 0.136487C3.27777 0.0830597 3.2587 0.0309775 3.24882 0.0207485C3.23236 0.00371844 3.16744 0.00199801 2.46679 2.90846e-06C2.03908 -0.00120959 1.69245 0.00215199 1.67942 0.00765231Z" fill="#9969FF" stroke="#E4D8FF" stroke-width="2" mask="url(#path-1-inside-1)"/>
</svg>
