<svg width="20" height="20" viewBox="0 0 20 20" fill="none" xmlns="http://www.w3.org/2000/svg">
<mask id="path-1-inside-1" fill="white">
<path fill-rule="evenodd" clip-rule="evenodd" d="M17.5374 0.0389083C17.4936 0.0173787 17.3996 -0.000244141 17.3286 -0.000244141C16.863 -0.000244141 16.651 0.587419 16.9938 0.927611C17.1685 1.10092 17.3155 1.46176 17.3235 1.73697C17.3335 2.08074 17.2479 2.42259 17.0644 2.77109C16.8548 3.1694 16.8598 3.19603 17.1603 3.28318C17.2672 3.31417 17.4385 3.37965 17.541 3.42866C17.8415 3.57238 17.8706 3.56154 18.0182 3.25141C18.2924 2.67525 18.373 2.3444 18.3712 1.8018C18.3697 1.34131 18.2756 0.995066 18.0472 0.609153C17.9232 0.399572 17.6503 0.0943019 17.5374 0.0389083ZM14.9902 1.91901C14.9447 1.88885 14.832 1.80816 14.7397 1.7397C14.3254 1.43231 13.5144 1.01574 13.019 0.85589C12.7179 0.7587 12.1181 0.62635 11.7978 0.586413C11.3803 0.534329 10.5227 0.530576 10.1067 0.579009C9.38336 0.663216 8.54912 0.881907 7.77954 1.18909C7.48158 1.30801 6.70766 1.68485 6.45014 1.83638C5.79516 2.22181 5.17566 2.65675 4.55108 3.16969C4.35178 3.33338 3.06616 4.60179 2.917 4.78191C2.52182 5.25909 2.06575 5.91109 1.77315 6.41714C1.32908 7.18517 0.824244 8.29827 0.645043 8.90456C0.615058 9.00596 0.552789 9.21288 0.506636 9.36439C0.460483 9.5159 0.403676 9.72088 0.380401 9.81989C0.357108 9.91889 0.312892 10.1056 0.282129 10.2347C-0.0437284 11.6028 -0.0923547 13.4148 0.162569 14.6879C0.271113 15.2299 0.32721 15.4503 0.44708 15.8061C0.632143 16.3552 0.983956 17.0637 1.26022 17.4434C1.31585 17.5199 1.39631 17.6312 1.439 17.6907C1.5394 17.8307 2.24018 18.5222 2.36894 18.6084C2.42332 18.6448 2.52773 18.7153 2.60095 18.765C3.26869 19.2186 3.98835 19.5226 4.93808 19.7521C5.83735 19.9695 7.01624 20.0504 8.09058 19.9684C8.57912 19.9311 9.49984 19.8017 9.82089 19.7253C9.95641 19.693 10.2303 19.6278 10.4295 19.5804C11.0784 19.4261 11.9822 19.1108 12.6908 18.7917C13.4891 18.4321 14.4076 17.9089 14.9491 17.5053C15.5719 17.0411 15.8101 16.8357 16.3886 16.2641C17.4585 15.2071 18.1401 14.3207 18.8356 13.0825C19.2398 12.3626 19.5825 11.5147 19.7805 10.7443C19.8638 10.42 19.9665 9.74344 19.9934 9.34112C20.031 8.77981 19.9039 7.87324 19.7062 7.29216C19.5892 6.94808 19.3151 6.41105 19.0909 6.08621C18.7774 5.63217 18.7274 5.5718 18.3879 5.23688C17.9207 4.77589 17.6499 4.60075 17.5527 4.69663C17.529 4.72003 17.4964 4.88579 17.4704 5.11596C17.3773 5.93854 17.0183 6.97418 16.5185 7.86226C16.032 8.72657 15.5455 9.43186 14.7748 10.3899C14.2068 11.0959 12.9229 12.4233 12.1572 13.0961C10.3365 14.6958 8.44161 15.8821 6.56067 16.5995C6.43036 16.6492 6.27784 16.6961 6.22174 16.7037C5.99234 16.7349 5.73623 16.6206 5.63973 16.444C5.57847 16.3318 5.56705 16.1188 5.61549 15.9911C5.68757 15.8011 5.77594 15.7484 6.4782 15.4775C7.09416 15.2398 7.84418 14.8633 8.64423 14.3901C9.21119 14.0547 9.61073 13.7872 10.2099 13.3416C10.2913 13.2811 10.3853 13.2127 10.4189 13.1895C10.4773 13.1492 10.5464 13.0933 11.1029 12.636C11.4249 12.3713 13.2839 10.5373 13.6103 10.1623C14.0977 9.60217 14.2906 9.36084 14.7386 8.75054C15.0898 8.27201 15.3611 7.83529 15.7756 7.08118C15.9262 6.80724 16.1216 6.35111 16.2434 5.98961C16.5296 5.13952 16.5762 4.50427 16.4022 3.82626C16.3301 3.5453 16.1852 3.21816 16.027 2.97905C15.9096 2.80164 15.8351 2.71887 15.482 2.37368C15.2571 2.15376 15.0358 1.94916 14.9902 1.91901Z"/>
</mask>
<path fill-rule="evenodd" clip-rule="evenodd" d="M17.5374 0.0389083C17.4936 0.0173787 17.3996 -0.000244141 17.3286 -0.000244141C16.863 -0.000244141 16.651 0.587419 16.9938 0.927611C17.1685 1.10092 17.3155 1.46176 17.3235 1.73697C17.3335 2.08074 17.2479 2.42259 17.0644 2.77109C16.8548 3.1694 16.8598 3.19603 17.1603 3.28318C17.2672 3.31417 17.4385 3.37965 17.541 3.42866C17.8415 3.57238 17.8706 3.56154 18.0182 3.25141C18.2924 2.67525 18.373 2.3444 18.3712 1.8018C18.3697 1.34131 18.2756 0.995066 18.0472 0.609153C17.9232 0.399572 17.6503 0.0943019 17.5374 0.0389083ZM14.9902 1.91901C14.9447 1.88885 14.832 1.80816 14.7397 1.7397C14.3254 1.43231 13.5144 1.01574 13.019 0.85589C12.7179 0.7587 12.1181 0.62635 11.7978 0.586413C11.3803 0.534329 10.5227 0.530576 10.1067 0.579009C9.38336 0.663216 8.54912 0.881907 7.77954 1.18909C7.48158 1.30801 6.70766 1.68485 6.45014 1.83638C5.79516 2.22181 5.17566 2.65675 4.55108 3.16969C4.35178 3.33338 3.06616 4.60179 2.917 4.78191C2.52182 5.25909 2.06575 5.91109 1.77315 6.41714C1.32908 7.18517 0.824244 8.29827 0.645043 8.90456C0.615058 9.00596 0.552789 9.21288 0.506636 9.36439C0.460483 9.5159 0.403676 9.72088 0.380401 9.81989C0.357108 9.91889 0.312892 10.1056 0.282129 10.2347C-0.0437284 11.6028 -0.0923547 13.4148 0.162569 14.6879C0.271113 15.2299 0.32721 15.4503 0.44708 15.8061C0.632143 16.3552 0.983956 17.0637 1.26022 17.4434C1.31585 17.5199 1.39631 17.6312 1.439 17.6907C1.5394 17.8307 2.24018 18.5222 2.36894 18.6084C2.42332 18.6448 2.52773 18.7153 2.60095 18.765C3.26869 19.2186 3.98835 19.5226 4.93808 19.7521C5.83735 19.9695 7.01624 20.0504 8.09058 19.9684C8.57912 19.9311 9.49984 19.8017 9.82089 19.7253C9.95641 19.693 10.2303 19.6278 10.4295 19.5804C11.0784 19.4261 11.9822 19.1108 12.6908 18.7917C13.4891 18.4321 14.4076 17.9089 14.9491 17.5053C15.5719 17.0411 15.8101 16.8357 16.3886 16.2641C17.4585 15.2071 18.1401 14.3207 18.8356 13.0825C19.2398 12.3626 19.5825 11.5147 19.7805 10.7443C19.8638 10.42 19.9665 9.74344 19.9934 9.34112C20.031 8.77981 19.9039 7.87324 19.7062 7.29216C19.5892 6.94808 19.3151 6.41105 19.0909 6.08621C18.7774 5.63217 18.7274 5.5718 18.3879 5.23688C17.9207 4.77589 17.6499 4.60075 17.5527 4.69663C17.529 4.72003 17.4964 4.88579 17.4704 5.11596C17.3773 5.93854 17.0183 6.97418 16.5185 7.86226C16.032 8.72657 15.5455 9.43186 14.7748 10.3899C14.2068 11.0959 12.9229 12.4233 12.1572 13.0961C10.3365 14.6958 8.44161 15.8821 6.56067 16.5995C6.43036 16.6492 6.27784 16.6961 6.22174 16.7037C5.99234 16.7349 5.73623 16.6206 5.63973 16.444C5.57847 16.3318 5.56705 16.1188 5.61549 15.9911C5.68757 15.8011 5.77594 15.7484 6.4782 15.4775C7.09416 15.2398 7.84418 14.8633 8.64423 14.3901C9.21119 14.0547 9.61073 13.7872 10.2099 13.3416C10.2913 13.2811 10.3853 13.2127 10.4189 13.1895C10.4773 13.1492 10.5464 13.0933 11.1029 12.636C11.4249 12.3713 13.2839 10.5373 13.6103 10.1623C14.0977 9.60217 14.2906 9.36084 14.7386 8.75054C15.0898 8.27201 15.3611 7.83529 15.7756 7.08118C15.9262 6.80724 16.1216 6.35111 16.2434 5.98961C16.5296 5.13952 16.5762 4.50427 16.4022 3.82626C16.3301 3.5453 16.1852 3.21816 16.027 2.97905C15.9096 2.80164 15.8351 2.71887 15.482 2.37368C15.2571 2.15376 15.0358 1.94916 14.9902 1.91901Z" fill="#9969FF"/>
<path d="M17.5374 0.0389083L16.656 1.83422L16.6562 1.83433L17.5374 0.0389083ZM16.9938 0.927611L15.5851 2.34733L15.5851 2.34733L16.9938 0.927611ZM17.3235 1.73697L19.3226 1.67874L19.3226 1.67868L17.3235 1.73697ZM17.0644 2.77109L15.2946 1.83953L15.2946 1.83955L17.0644 2.77109ZM17.1603 3.28318L16.6033 5.20404L16.6034 5.20408L17.1603 3.28318ZM17.541 3.42866L18.4041 1.62445L18.4039 1.62436L17.541 3.42866ZM18.0182 3.25141L16.2123 2.39186L16.2123 2.39198L18.0182 3.25141ZM18.3712 1.8018L16.3712 1.8084V1.80842L18.3712 1.8018ZM18.0472 0.609153L16.326 1.6278L16.3261 1.62785L18.0472 0.609153ZM14.9902 1.91901L13.8854 3.58616L13.8862 3.58664L14.9902 1.91901ZM14.7397 1.7397L13.548 3.34588L13.5481 3.34599L14.7397 1.7397ZM13.019 0.85589L13.6333 -1.04745L13.6332 -1.04746L13.019 0.85589ZM11.7978 0.586413L11.5502 2.57103L11.5503 2.57105L11.7978 0.586413ZM10.1067 0.579009L10.338 2.56559L10.338 2.56559L10.1067 0.579009ZM7.77954 1.18909L8.52092 3.0466L8.52097 3.04658L7.77954 1.18909ZM6.45014 1.83638L5.43588 0.11264L5.43581 0.112681L6.45014 1.83638ZM4.55108 3.16969L3.28176 1.62411L3.28167 1.62418L4.55108 3.16969ZM2.917 4.78191L4.45736 6.05757L4.45737 6.05755L2.917 4.78191ZM1.77315 6.41714L0.0417417 5.41601L0.0417203 5.41605L1.77315 6.41714ZM0.645043 8.90456L2.56295 9.47168L2.56302 9.47145L0.645043 8.90456ZM0.380401 9.81989L2.32724 10.278L2.32733 10.2776L0.380401 9.81989ZM0.282129 10.2347L2.2277 10.6982L2.22771 10.6981L0.282129 10.2347ZM0.162569 14.6879L-1.7985 15.0805L-1.79849 15.0806L0.162569 14.6879ZM0.44708 15.8061L-1.44825 16.4446L-1.44819 16.4448L0.44708 15.8061ZM1.26022 17.4434L2.87761 16.267L2.87753 16.2669L1.26022 17.4434ZM1.439 17.6907L-0.186147 18.8564L-0.186107 18.8565L1.439 17.6907ZM2.36894 18.6084L3.48114 16.9462L3.48114 16.9462L2.36894 18.6084ZM2.60095 18.765L1.47695 20.4193L1.47711 20.4194L2.60095 18.765ZM4.93808 19.7521L4.46819 21.6962L4.46823 21.6962L4.93808 19.7521ZM8.09058 19.9684L8.24277 21.9626L8.24281 21.9626L8.09058 19.9684ZM9.82089 19.7253L9.35773 17.7796L9.35752 17.7797L9.82089 19.7253ZM10.4295 19.5804L10.8923 21.5261L10.8924 21.5261L10.4295 19.5804ZM12.6908 18.7917L13.5121 20.6152L13.5121 20.6152L12.6908 18.7917ZM14.9491 17.5053L13.7539 15.9017L13.7539 15.9017L14.9491 17.5053ZM16.3886 16.2641L14.983 14.8414L14.983 14.8414L16.3886 16.2641ZM18.8356 13.0825L20.5794 14.0618V14.0618L18.8356 13.0825ZM19.7805 10.7443L21.7176 11.2421L21.7176 11.2421L19.7805 10.7443ZM19.9934 9.34112L21.989 9.47467L21.989 9.47465L19.9934 9.34112ZM19.7062 7.29216L17.8128 7.93628L17.8128 7.93636L19.7062 7.29216ZM19.0909 6.08621L20.7367 4.94992L20.7367 4.94988L19.0909 6.08621ZM18.3879 5.23688L16.9833 6.66063L18.3879 5.23688ZM17.5527 4.69663L16.1481 3.27288L17.5527 4.69663ZM17.4704 5.11596L15.4831 4.89081L15.4831 4.89099L17.4704 5.11596ZM16.5185 7.86226L18.2614 8.84321L18.2614 8.84316L16.5185 7.86226ZM14.7748 10.3899L16.333 11.6436L16.3331 11.6436L14.7748 10.3899ZM12.1572 13.0961L10.837 11.5937L10.837 11.5937L12.1572 13.0961ZM6.56067 16.5995L5.84793 14.7308L5.84782 14.7308L6.56067 16.5995ZM6.22174 16.7037L5.95293 14.7219L5.95233 14.722L6.22174 16.7037ZM5.63973 16.444L3.88449 17.4027L3.88454 17.4028L5.63973 16.444ZM5.61549 15.9911L7.48548 16.7005L7.48557 16.7002L5.61549 15.9911ZM6.4782 15.4775L7.19816 17.3434L7.1982 17.3434L6.4782 15.4775ZM8.64423 14.3901L9.66241 16.1115L9.66241 16.1115L8.64423 14.3901ZM10.2099 13.3416L11.4033 14.9465L11.4034 14.9465L10.2099 13.3416ZM10.4189 13.1895L11.5537 14.8364L11.5546 14.8358L10.4189 13.1895ZM11.1029 12.636L9.83292 11.0909L9.83291 11.0909L11.1029 12.636ZM13.6103 10.1623L15.1189 11.4754L15.1189 11.4753L13.6103 10.1623ZM14.7386 8.75054L16.3509 9.93393L16.3509 9.93389L14.7386 8.75054ZM15.7756 7.08118L17.5283 8.0446L17.5283 8.04453L15.7756 7.08118ZM16.2434 5.98961L18.1388 6.62791L18.1388 6.6278L16.2434 5.98961ZM16.4022 3.82626L18.3394 3.32898L18.3394 3.32896L16.4022 3.82626ZM16.027 2.97905L14.359 4.08254L14.359 4.08256L16.027 2.97905ZM15.482 2.37368L16.8802 0.943586L16.8801 0.943544L15.482 2.37368ZM18.4188 -1.7564C18.1559 -1.88546 17.9139 -1.93533 17.8118 -1.95448C17.6774 -1.97968 17.5108 -2.00024 17.3286 -2.00024V1.99976C17.2174 1.99976 17.1333 1.988 17.0746 1.97699C17.0407 1.97064 16.9941 1.96055 16.9375 1.94407C16.8905 1.93038 16.7855 1.89781 16.656 1.83422L18.4188 -1.7564ZM17.3286 -2.00024C16.1432 -2.00024 15.2921 -1.2165 14.9768 -0.342705C14.6658 0.519106 14.8178 1.58599 15.5851 2.34733L18.4025 -0.492107C18.827 -0.0709629 18.9136 0.531995 18.7393 1.01493C18.5608 1.50985 18.0484 1.99976 17.3286 1.99976V-2.00024ZM15.5851 2.34733C15.4893 2.25226 15.4367 2.17269 15.4146 2.13678C15.3897 2.09624 15.3762 2.06655 15.3689 2.04852C15.3613 2.02991 15.3533 2.00672 15.3459 1.97521C15.3392 1.94637 15.327 1.88534 15.3243 1.79525L19.3226 1.67868C19.31 1.24549 19.199 0.84797 19.0734 0.539635C18.9529 0.243722 18.7449 -0.15238 18.4025 -0.492113L15.5851 2.34733ZM15.3243 1.79519C15.3241 1.78816 15.3244 1.78112 15.3251 1.77488C15.3258 1.76869 15.3266 1.7656 15.3265 1.76626C15.3263 1.76706 15.3203 1.79067 15.2946 1.83953L18.8342 3.70265C19.1545 3.09425 19.3441 2.41397 19.3226 1.67874L15.3243 1.79519ZM15.2946 1.83955C15.2506 1.92325 15.1636 2.0872 15.0957 2.25424C15.0544 2.35597 14.8349 2.869 14.9552 3.51183C15.117 4.37597 15.7247 4.8153 16.0502 4.98835C16.3042 5.12338 16.5659 5.1932 16.6033 5.20404L17.7173 1.36231C17.6044 1.32958 17.7528 1.3634 17.9279 1.45648C18.1745 1.58758 18.7377 1.97901 18.8869 2.77582C18.946 3.09174 18.9114 3.34804 18.8819 3.49024C18.8528 3.63124 18.814 3.72922 18.8017 3.75953C18.7825 3.80684 18.7735 3.81809 18.8342 3.70263L15.2946 1.83955ZM16.6034 5.20408C16.5897 5.20011 16.5878 5.19914 16.5991 5.20306C16.6089 5.20642 16.6226 5.21137 16.6384 5.21741C16.6542 5.22344 16.668 5.22903 16.6782 5.23329C16.6897 5.23815 16.6891 5.23817 16.6782 5.23296L18.4039 1.62436C18.2049 1.52921 17.9313 1.42437 17.7172 1.36228L16.6034 5.20408ZM16.678 5.23287C16.7357 5.2605 16.9261 5.35389 17.1409 5.41905C17.3674 5.48777 17.9068 5.61781 18.5334 5.38504C19.1475 5.15691 19.4687 4.71857 19.5891 4.53754C19.7084 4.35804 19.795 4.17193 19.8241 4.11084L16.2123 2.39198C16.1675 2.48596 16.1952 2.4175 16.2582 2.32277C16.3222 2.2265 16.5896 1.84004 17.1405 1.63542C17.7038 1.42616 18.1704 1.55134 18.3023 1.59137C18.4224 1.62783 18.4965 1.66869 18.4041 1.62445L16.678 5.23287ZM19.8241 4.11096C20.2046 3.31154 20.3741 2.68569 20.3712 1.79517L16.3712 1.80842C16.3717 1.97158 16.3601 2.01995 16.355 2.04081C16.3465 2.07557 16.321 2.16351 16.2123 2.39186L19.8241 4.11096ZM20.3712 1.79519C20.3685 0.988526 20.1832 0.29137 19.7683 -0.409546L16.3261 1.62785C16.3469 1.66313 16.3567 1.68392 16.3607 1.69309C16.3644 1.70141 16.3647 1.70341 16.3642 1.70186C16.362 1.69376 16.3709 1.71687 16.3712 1.8084L20.3712 1.79519ZM19.7683 -0.40949C19.618 -0.663474 19.4292 -0.898899 19.2792 -1.06671C19.1984 -1.15708 19.1023 -1.25768 18.997 -1.35397C18.9331 -1.41236 18.7189 -1.60911 18.4186 -1.75651L16.6562 1.83433C16.5754 1.79466 16.5132 1.75677 16.4731 1.73078C16.4314 1.70378 16.3989 1.68009 16.3768 1.6633C16.334 1.6308 16.3068 1.60633 16.2975 1.59778C16.279 1.58086 16.28 1.58006 16.297 1.59913C16.3119 1.61577 16.3272 1.63432 16.3385 1.64927C16.3526 1.66781 16.3455 1.66075 16.326 1.6278L19.7683 -0.40949ZM16.0951 0.25187C16.1043 0.258002 16.1046 0.258373 16.0911 0.248921C16.08 0.241176 16.0649 0.230466 16.0465 0.217343C16.0096 0.190885 15.9675 0.160302 15.9313 0.133408L13.5481 3.34599C13.645 3.41782 13.7932 3.52505 13.8854 3.58616L16.0951 0.25187ZM15.9314 0.133518C15.3405 -0.304933 14.3341 -0.821294 13.6333 -1.04745L12.4048 2.75923C12.6947 2.85278 13.3103 3.16956 13.548 3.34588L15.9314 0.133518ZM13.6332 -1.04746C13.2103 -1.18394 12.4876 -1.34306 12.0452 -1.39822L11.5503 2.57105C11.7486 2.59576 12.2254 2.70134 12.4048 2.75924L13.6332 -1.04746ZM12.0454 -1.3982C11.4697 -1.47003 10.4513 -1.47461 9.87543 -1.40757L10.338 2.56559C10.5942 2.53577 11.291 2.53869 11.5502 2.57103L12.0454 -1.3982ZM9.87543 -1.40758C8.95499 -1.30042 7.94927 -1.0321 7.03811 -0.668407L8.52097 3.04658C9.14897 2.79591 9.81173 2.62685 10.338 2.56559L9.87543 -1.40758ZM7.03816 -0.668426C6.65275 -0.514601 5.78691 -0.0939093 5.43588 0.11264L7.46441 3.56011C7.46438 3.56013 7.4647 3.55994 7.46541 3.55953C7.46611 3.55912 7.46712 3.55854 7.46847 3.55777C7.4712 3.55621 7.47496 3.55408 7.47983 3.55135C7.48973 3.54583 7.50268 3.5387 7.51892 3.52994C7.55169 3.51225 7.59275 3.49062 7.64131 3.46557C7.73859 3.4154 7.85478 3.35732 7.97522 3.29868C8.23461 3.17238 8.44566 3.07664 8.52092 3.0466L7.03816 -0.668426ZM5.43581 0.112681C4.68589 0.553979 3.98155 1.0494 3.28176 1.62411L5.82039 4.71528C6.36977 4.26411 6.90442 3.88964 7.46448 3.56007L5.43581 0.112681ZM3.28167 1.62418C3.09261 1.77946 2.63821 2.22269 2.31058 2.54593C1.99086 2.86138 1.53329 3.31709 1.37663 3.50626L4.45737 6.05755C4.42496 6.09669 4.41461 6.10518 4.46924 6.04789C4.50866 6.00656 4.56357 5.95007 4.63199 5.88061C4.76807 5.74248 4.94193 5.56893 5.11989 5.39335C5.29781 5.21781 5.4749 5.04511 5.61721 4.90859C5.78854 4.74423 5.84361 4.69621 5.82048 4.71521L3.28167 1.62418ZM1.37664 3.50625C0.914439 4.06436 0.393463 4.80772 0.0417417 5.41601L3.50455 7.41826C3.73804 7.01445 4.1292 6.45382 4.45736 6.05757L1.37664 3.50625ZM0.0417203 5.41605C-0.452363 6.27059 -1.035 7.53265 -1.27293 8.33767L2.56302 9.47145C2.68348 9.06388 3.11052 8.09975 3.50457 7.41822L0.0417203 5.41605ZM-1.27287 8.33744C-1.30079 8.43186 -1.36136 8.6332 -1.40656 8.78158L2.41984 9.9472C2.46694 9.79256 2.5309 9.58006 2.56295 9.47168L-1.27287 8.33744ZM-1.40656 8.78158C-1.45922 8.95443 -1.52952 9.20479 -1.56653 9.36223L2.32733 10.2776C2.32725 10.2779 2.32807 10.2744 2.3301 10.2664C2.33205 10.2586 2.33465 10.2485 2.33793 10.236C2.34453 10.2108 2.35282 10.1802 2.36229 10.146C2.38157 10.0764 2.40258 10.0038 2.41984 9.9472L-1.40656 8.78158ZM-1.56644 9.36183C-1.58923 9.45871 -1.63302 9.64359 -1.66345 9.77135L2.22771 10.6981C2.2588 10.5676 2.30345 10.3791 2.32724 10.278L-1.56644 9.36183ZM-1.66344 9.77132C-2.05057 11.3966 -2.11471 13.5014 -1.7985 15.0805L2.12364 14.2952C1.93 13.3281 1.96312 11.8089 2.2277 10.6982L-1.66344 9.77132ZM-1.79849 15.0806C-1.68026 15.671 -1.6046 15.9805 -1.44825 16.4446L2.34241 15.1675C2.25902 14.92 2.22249 14.7887 2.12363 14.2951L-1.79849 15.0806ZM-1.44819 16.4448C-1.21286 17.1431 -0.77691 18.0429 -0.357095 18.62L2.87753 16.2669C2.74482 16.0845 2.47715 15.5674 2.34236 15.1674L-1.44819 16.4448ZM-0.357173 18.6199C-0.30338 18.6938 -0.225609 18.8014 -0.186147 18.8564L3.06416 16.525C3.01823 16.461 2.93508 16.346 2.87761 16.267L-0.357173 18.6199ZM-0.186107 18.8565C-0.0642317 19.0264 0.102765 19.2 0.160745 19.2608C0.260267 19.3653 0.37629 19.4825 0.488528 19.5933C0.600649 19.7039 0.719027 19.818 0.823816 19.9151C0.873057 19.9608 1.06552 20.1427 1.25674 20.2706L3.48114 16.9462C3.54356 16.9879 3.58512 17.0216 3.59147 17.0267C3.60402 17.0367 3.60936 17.0415 3.60522 17.0379C3.59693 17.0308 3.57666 17.0127 3.54305 16.9816C3.47709 16.9204 3.38986 16.8367 3.29814 16.7462C3.20654 16.6558 3.1205 16.5685 3.05637 16.5012C3.02385 16.4671 3.00351 16.445 2.99373 16.434C2.98891 16.4286 2.99147 16.4313 2.99902 16.4404C3.00303 16.4452 3.0295 16.4767 3.06412 16.525L-0.186107 18.8565ZM1.25673 20.2706C1.30598 20.3036 1.40625 20.3713 1.47695 20.4193L3.72495 17.1108C3.64921 17.0593 3.54066 16.986 3.48114 16.9462L1.25673 20.2706ZM1.47711 20.4194C2.38059 21.0332 3.33258 21.4217 4.46819 21.6962L5.40797 17.8081C4.64412 17.6235 4.15679 17.4041 3.72479 17.1106L1.47711 20.4194ZM4.46823 21.6962C5.60125 21.97 6.99328 22.0579 8.24277 21.9626L7.93839 17.9742C7.0392 18.0428 6.07345 17.969 5.40793 17.8081L4.46823 21.6962ZM8.24281 21.9626C8.79105 21.9207 9.82473 21.7803 10.2843 21.6708L9.35752 17.7797C9.3582 17.7795 9.35339 17.7807 9.34197 17.7831C9.33087 17.7854 9.31595 17.7884 9.29692 17.7921C9.25846 17.7995 9.20968 17.8082 9.15115 17.8181C9.03386 17.8379 8.89198 17.8596 8.74029 17.881C8.42825 17.9248 8.12267 17.9601 7.93835 17.9742L8.24281 21.9626ZM10.284 21.6709C10.4197 21.6386 10.6933 21.5735 10.8923 21.5261L9.96671 17.6347C9.76725 17.6821 9.4931 17.7474 9.35773 17.7796L10.284 21.6709ZM10.8924 21.5261C11.6825 21.3382 12.7066 20.978 13.5121 20.6152L11.8694 16.9681C11.2579 17.2435 10.4742 17.514 9.96669 17.6347L10.8924 21.5261ZM13.5121 20.6152C14.406 20.2126 15.4582 19.6203 16.1444 19.1088L13.7539 15.9017C13.357 16.1976 12.5722 16.6516 11.8694 16.9681L13.5121 20.6152ZM16.1443 19.1089C16.8448 18.5868 17.153 18.3204 17.7943 17.6868L14.983 14.8414C14.4672 15.3509 14.299 15.4954 13.7539 15.9017L16.1443 19.1089ZM17.7943 17.6868C18.9892 16.5063 19.7873 15.4723 20.5794 14.0618L17.0917 12.1031C16.493 13.1692 15.9278 13.9079 14.983 14.8414L17.7943 17.6868ZM20.5794 14.0618C21.0655 13.1963 21.4747 12.187 21.7176 11.2421L17.8435 10.2465C17.6903 10.8423 17.4142 11.5289 17.0917 12.1031L20.5794 14.0618ZM21.7176 11.2421C21.837 10.7772 21.9554 9.97594 21.989 9.47467L17.9979 9.20758C17.9776 9.51095 17.8906 10.0628 17.8434 10.2466L21.7176 11.2421ZM21.989 9.47465C22.0457 8.6268 21.8746 7.4561 21.5996 6.64795L17.8128 7.93636C17.9332 8.29037 18.0163 8.93283 17.9979 9.20759L21.989 9.47465ZM21.5996 6.64803C21.4183 6.11491 21.0568 5.41361 20.7367 4.94992L17.445 7.22249C17.5734 7.40848 17.76 7.78124 17.8128 7.93628L21.5996 6.64803ZM20.7367 4.94988C20.3628 4.40838 20.2339 4.24854 19.7926 3.81313L16.9833 6.66063C17.1563 6.83124 17.1865 6.86554 17.2084 6.89203C17.2379 6.92769 17.2806 6.98433 17.445 7.22253L20.7367 4.94988ZM19.7926 3.81313C19.5387 3.56269 19.2352 3.28393 18.9178 3.07862C18.7723 2.98451 18.4777 2.80767 18.0859 2.72197C17.6542 2.62752 16.8253 2.60474 16.1481 3.27288L18.9573 6.12038C18.3287 6.74057 17.5701 6.70373 17.2311 6.62956C16.932 6.56414 16.7525 6.44192 16.7453 6.43724C16.7044 6.41077 16.7699 6.45008 16.9833 6.66063L19.7926 3.81313ZM16.1481 3.27288C15.8688 3.5484 15.743 3.83843 15.716 3.8993C15.6667 4.01002 15.636 4.10496 15.6194 4.15974C15.5852 4.27283 15.5632 4.37584 15.5499 4.44338C15.5216 4.5875 15.4997 4.74389 15.4831 4.89081L19.4577 5.3411C19.462 5.3026 19.4662 5.27108 19.4697 5.2472C19.4734 5.22216 19.4754 5.21181 19.4749 5.21413C19.4746 5.21565 19.4729 5.22448 19.4694 5.23916C19.4663 5.2525 19.4593 5.281 19.4476 5.31956C19.4378 5.35192 19.4137 5.42827 19.3709 5.52455C19.349 5.57383 19.3127 5.64993 19.2589 5.73874C19.2099 5.81968 19.1135 5.96629 18.9573 6.12038L16.1481 3.27288ZM15.4831 4.89099C15.4261 5.394 15.1736 6.17406 14.7756 6.88137L18.2614 8.84316C18.863 7.77429 19.3284 6.48307 19.4577 5.34093L15.4831 4.89099ZM14.7756 6.88131C14.354 7.63031 13.9339 8.24448 13.2165 9.13624L16.3331 11.6436C17.1571 10.6192 17.7101 9.82284 18.2614 8.84321L14.7756 6.88131ZM13.2165 9.1362C12.7288 9.74232 11.5268 10.9875 10.837 11.5937L13.4773 14.5985C14.3189 13.859 15.6847 12.4494 16.333 11.6436L13.2165 9.1362ZM10.837 11.5937C9.15992 13.0673 7.46594 14.1137 5.84793 14.7308L7.27342 18.4682C9.41729 17.6505 11.5132 16.3243 13.4773 14.5985L10.837 11.5937ZM5.84782 14.7308C5.83808 14.7346 5.82527 14.7392 5.81086 14.7442C5.79644 14.7491 5.78405 14.7531 5.77543 14.7558C5.76531 14.7589 5.76752 14.758 5.78074 14.7545C5.78758 14.7528 5.80345 14.7488 5.8262 14.7439C5.83792 14.7414 5.85398 14.7381 5.87354 14.7345C5.89259 14.731 5.91973 14.7264 5.95293 14.7219L6.49056 18.6856C6.70077 18.6571 6.89684 18.5958 6.95132 18.579C7.05351 18.5476 7.16592 18.5092 7.27352 18.4681L5.84782 14.7308ZM5.95233 14.722C6.2434 14.6824 6.49644 14.7363 6.69607 14.8254C6.88318 14.909 7.18286 15.0969 7.39493 15.4852L3.88454 17.4028C4.1931 17.9676 4.66908 18.3011 5.06572 18.4781C5.47489 18.6607 5.97068 18.7563 6.49115 18.6855L5.95233 14.722ZM7.39497 15.4852C7.48805 15.6556 7.52992 15.8004 7.54954 15.8833C7.57094 15.9737 7.58016 16.0519 7.58361 16.1164C7.58709 16.1814 7.58596 16.2556 7.57584 16.3394C7.56638 16.4179 7.54423 16.5456 7.48548 16.7005L3.7455 15.2818C3.59193 15.6867 3.57543 16.0707 3.58934 16.3303C3.60266 16.5791 3.65816 16.9883 3.88449 17.4027L7.39497 15.4852ZM7.48557 16.7002C7.4662 16.7513 7.39295 16.9361 7.22938 17.1359C7.06788 17.3331 6.90454 17.4409 6.83374 17.4831C6.77669 17.517 6.75812 17.5206 6.84009 17.4857C6.91422 17.4542 7.02364 17.4107 7.19816 17.3434L5.75825 13.6116C5.46566 13.7244 5.08437 13.8693 4.78732 14.0462C4.59763 14.1591 4.35479 14.3327 4.1345 14.6017C3.91215 14.8733 3.80082 15.1359 3.74541 15.2821L7.48557 16.7002ZM7.1982 17.3434C7.94953 17.0535 8.80229 16.6202 9.66241 16.1115L7.62605 12.6686C6.88607 13.1063 6.23878 13.4261 5.75821 13.6116L7.1982 17.3434ZM9.66241 16.1115C10.2971 15.7361 10.7551 15.4285 11.4033 14.9465L9.01653 11.7367C8.46636 12.1458 8.12525 12.3734 7.62605 12.6686L9.66241 16.1115ZM11.4034 14.9465C11.4384 14.9204 11.4767 14.8923 11.5092 14.8686C11.5254 14.8568 11.5388 14.8471 11.5487 14.8401C11.5609 14.8313 11.561 14.8314 11.5537 14.8364L9.28416 11.5426C9.21734 11.5886 9.09693 11.6769 9.01642 11.7368L11.4034 14.9465ZM11.5546 14.8358C11.7039 14.7328 11.8732 14.5916 12.3728 14.181L9.83291 11.0909C9.55218 11.3216 9.40272 11.4442 9.31588 11.5145C9.22339 11.5894 9.24357 11.5706 9.28325 11.5432L11.5546 14.8358ZM12.3728 14.181C12.622 13.9762 13.2471 13.3698 13.7595 12.8642C14.2836 12.3472 14.8941 11.7336 15.1189 11.4754L12.1017 8.84921C12.1019 8.84892 12.0991 8.85217 12.0923 8.85966C12.0857 8.86693 12.0769 8.8766 12.0655 8.88891C12.0424 8.91376 12.0127 8.94532 11.976 8.98375C11.9024 9.06071 11.8092 9.15657 11.7007 9.26681C11.484 9.48694 11.2182 9.75248 10.9503 10.0167C10.6824 10.2811 10.4171 10.5395 10.2018 10.7456C10.0938 10.849 10.002 10.9356 9.93068 11.0017C9.84887 11.0775 9.82294 11.0991 9.83292 11.0909L12.3728 14.181ZM15.1189 11.4753C15.6434 10.8726 15.8708 10.588 16.3509 9.93393L13.1262 7.56715C12.7104 8.13369 12.5521 8.33172 12.1016 8.84928L15.1189 11.4753ZM16.3509 9.93389C16.7708 9.36171 17.0886 8.84433 17.5283 8.0446L14.0229 6.11775C13.6335 6.82625 13.4087 7.18231 13.1262 7.56719L16.3509 9.93389ZM17.5283 8.04453C17.7468 7.64696 17.9871 7.07821 18.1388 6.62791L14.3479 5.35132C14.2561 5.62402 14.1055 5.96753 14.0229 6.11782L17.5283 8.04453ZM18.1388 6.6278C18.514 5.51346 18.6333 4.47391 18.3394 3.32898L14.465 4.32354C14.5192 4.53464 14.5452 4.76558 14.3479 5.35143L18.1388 6.6278ZM18.3394 3.32896C18.2125 2.83493 17.9775 2.30253 17.695 1.87554L14.359 4.08256C14.3929 4.13379 14.4476 4.25567 14.465 4.32357L18.3394 3.32896ZM17.695 1.87556C17.4493 1.50414 17.2371 1.29256 16.8802 0.943586L14.0839 3.80377C14.1702 3.88818 14.2316 3.94882 14.2782 3.99589C14.3248 4.04303 14.3469 4.06672 14.3565 4.07741C14.3632 4.08481 14.3588 4.08037 14.3507 4.06967C14.3438 4.06063 14.344 4.05984 14.359 4.08254L17.695 1.87556ZM16.8801 0.943544C16.7564 0.822556 16.6313 0.703434 16.5266 0.606646C16.475 0.558942 16.4216 0.510452 16.3724 0.467319C16.3645 0.460394 16.2388 0.347017 16.0943 0.25139L13.8862 3.58664C13.8344 3.55239 13.7969 3.52383 13.7825 3.5128C13.7646 3.49902 13.7517 3.48855 13.7459 3.48375C13.7345 3.47439 13.7305 3.47072 13.7369 3.47637C13.749 3.48695 13.7736 3.50901 13.8111 3.54371C13.8847 3.61174 13.9827 3.70488 14.0839 3.80381L16.8801 0.943544Z" fill="#E4D8FF" mask="url(#path-1-inside-1)"/>
</svg>
