<svg width="35" height="35" viewBox="0 0 35 35" fill="none" xmlns="http://www.w3.org/2000/svg">
<path d="M26.5907 26.983C20.5434 33.0303 11.59 34.0469 5.75195 29.6398C6.11014 30.114 6.49942 30.5703 6.92936 31.0002C12.6502 36.721 22.5891 36.0585 29.1279 29.5202C35.6661 22.9814 36.3287 13.0425 30.6073 7.32169C30.1779 6.89175 29.7217 6.50247 29.2475 6.14429C33.6545 11.9823 32.638 20.9357 26.5907 26.983Z" fill="#6E29FF"/>
<path d="M28.0712 4.78475C33.7926 10.5061 33.13 20.4445 26.5912 26.9833C20.0524 33.5221 10.1141 34.1847 4.39266 28.4633C-1.32875 22.7419 -0.666193 12.8036 5.87264 6.26473C12.4115 -0.274103 22.3498 -0.936656 28.0712 4.78475Z" fill="#9969FF"/>
<path d="M14.1368 29.9642C11.0016 29.9642 8.14209 28.8304 6.08327 26.7722C1.30367 21.9926 1.96742 13.5516 7.56325 7.95638C10.5322 4.98685 14.4549 3.28442 18.3256 3.28442C21.4607 3.28442 24.3202 4.41818 26.3791 6.4764C31.1586 11.256 30.4949 19.697 24.8991 25.2922C21.9307 28.2605 18.008 29.9642 14.1368 29.9642Z" fill="#DAC9FF"/>
<path d="M14.8339 25.1779C12.8124 25.1779 10.9687 24.4469 9.64124 23.1198C6.55951 20.038 6.98747 14.5954 10.5955 10.9877C12.5098 9.07304 15.039 7.97534 17.5347 7.97534C19.5561 7.97534 21.3999 8.70637 22.7273 10.0335C25.8091 13.1153 25.3811 18.5579 21.7731 22.1656C19.8592 24.0795 17.33 25.1779 14.8339 25.1779Z" fill="#9969FF"/>
<path d="M26.9962 26.5431L29.5412 29.088C29.8169 28.795 30.0829 28.4966 30.3359 28.1917L27.7951 25.6509C27.5422 25.9552 27.2713 26.25 26.9962 26.5431Z" fill="#9969FF"/>
<path d="M24.7831 28.5583L27.3293 31.1045C27.6432 30.8611 27.9506 30.604 28.2526 30.3367L25.7106 27.7947C25.4074 28.062 25.0977 28.3143 24.7831 28.5583Z" fill="#9969FF"/>
<path d="M28.8798 24.1977L31.4242 26.742C31.655 26.4012 31.8738 26.0556 32.0789 25.7057L29.54 23.1667C29.3343 23.5166 29.11 23.8586 28.8798 24.1977Z" fill="#9969FF"/>
<path d="M30.401 21.4909L32.9484 24.0376C33.1284 23.6418 33.291 23.2417 33.4399 22.8387L30.8961 20.2949C30.7472 20.6974 30.5804 21.0956 30.401 21.4909Z" fill="#9969FF"/>
<path d="M22.2267 30.2303L24.7717 32.7752C25.1323 32.5803 25.4899 32.3758 25.8415 32.1533L23.2947 29.6072C22.9431 29.829 22.5873 30.0353 22.2267 30.2303Z" fill="#9969FF"/>
<path d="M19.2745 31.5064L21.8189 34.0507C22.2333 33.9144 22.6465 33.7649 23.0555 33.5957L20.5117 31.0525C20.1027 31.2211 19.6901 31.3706 19.2745 31.5064Z" fill="#9969FF"/>
<path d="M15.0122 32.3181L17.559 34.8648C18.0678 34.8361 18.5791 34.7829 19.0904 34.7052L16.5424 32.1572C16.0312 32.2344 15.5211 32.29 15.0122 32.3181Z" fill="#9969FF"/>
<path d="M10.308 31.8418L12.8613 34.3951C13.543 34.5781 14.2403 34.7103 14.9483 34.7916L12.3961 32.2389C11.6875 32.1563 10.9903 32.026 10.308 31.8418Z" fill="#9969FF"/>
<path d="M31.6436 17.6595L34.1862 20.2021C34.2831 19.7129 34.3578 19.2232 34.4092 18.734L31.8637 16.1885C31.8122 16.6788 31.7399 17.1692 31.6436 17.6595Z" fill="#9969FF"/>
<path d="M34.475 16.2628C34.4409 15.6176 34.3698 14.9783 34.2538 14.3504L31.6938 11.7905C31.8128 12.4274 31.9043 13.0714 31.9384 13.7262L34.475 16.2628Z" fill="#9969FF"/>
</svg>
