<svg width="11" height="28" viewBox="0 0 11 28" fill="none" xmlns="http://www.w3.org/2000/svg">
<path d="M6.67578 0.964844C9.44943 0.964844 10.8363 1.8372 10.8363 3.58191C10.8363 3.73849 10.8139 3.96217 10.7692 4.25296L10.0981 8.54765C9.82969 10.1805 9.15865 11.6233 8.08498 12.8759C7.48104 13.5693 7.05604 14.1732 6.80999 14.6877C6.51921 15.2693 6.30671 16.0074 6.1725 16.9021L5.56856 20.7607H1.94492L2.75017 15.7614C2.97386 14.3745 3.65608 13.0213 4.79686 11.7016C5.37843 11.0305 5.80343 10.4489 6.07184 9.95684C6.36263 9.46474 6.58631 8.73777 6.74289 7.77594L7.31328 4.25296C7.33564 4.11875 7.34683 4.04046 7.34683 4.01809C7.34683 3.63784 7.04486 3.44771 6.44092 3.44771C6.12776 3.44771 5.90408 3.49244 5.76987 3.58191C5.56856 3.67139 5.44554 3.89507 5.4008 4.25296L4.46134 10.2588H0.938354L1.87782 4.25296C2.23571 2.06088 3.83503 0.964844 6.67578 0.964844ZM1.57585 23.0086H5.19949L4.56199 27.0349H0.938354L1.57585 23.0086Z" fill="white" fill-opacity="0.65"/>
</svg>
